;TYPE=PLATED
;Layer: PTH_Through_Via
;EasyEDA Pro Client v3.2.91, 2026-07-29 11:30:50
;Gerber Generator version 0.3
M48
METRIC,LZ,0000.00000
;Hole size 1 = 0.30500 METRIC
T01C0.30500
;Hole size 2 = 0.33020 METRIC
T02C0.33020
;Hole size 3 = 0.40000 METRIC
T03C0.40000
;Hole size 4 = 0.40640 METRIC
T04C0.40640
;Hole size 5 = 0.50000 METRIC
T05C0.50000
;Hole size 6 = 0.50800 METRIC
T06C0.50800
;Hole size 7 = 0.60000 METRIC
T07C0.60000
;Hole size 8 = 0.63500 METRIC
T08C0.63500
;Hole size 9 = 0.80000 METRIC
T09C0.80000
;Hole size 10 = 1.00000 METRIC
T10C1.00000
;Hole size 11 = 1.60000 METRIC
T11C1.60000
;Hole size 12 = 4.00000 METRIC
T12C4.00000
%
G05
G90
T01
X94.67521Y33.29288
X95.49122Y31.49834
X97.58225Y33.85389
X85.33898Y33.54789
X93.14519Y30.23284
X88.45313Y30.33484
X86.76504Y40.64585
X85.85209Y39.66796
T02
X89.06468Y46.81613
X8.44408Y46.68454
X40.1818Y20.94062
X82.46008Y37.11774
X7.84108Y42.58615
X73.91298Y32.87594
X10.82758Y21.70794
X15.70888Y21.47134
X21.24608Y29.47234
X22.76488Y33.14934
X70.80148Y69.60434
X122.53518Y55.86227
X80.40268Y39.22594
X76.69428Y44.43294
X85.78126Y41.58152
X79.51368Y47.25234
X86.41546Y42.36852
X75.83068Y44.50914
X79.58988Y48.26834
X88.96842Y36.59704
X88.27668Y36.00014
X88.70848Y35.26354
X85.81288Y56.06614
X73.31608Y33.57444
X82.29287Y64.68779
X90.66027Y43.51634
X83.14588Y67.31834
X83.15993Y73.79554
X82.46008Y66.50554
X78.12603Y37.17229
X8.24988Y32.31174
X4.97088Y30.49575
X79.99628Y35.59374
X11.87968Y33.79775
X32.96298Y80.51704
X36.95078Y72.41444
X34.57588Y68.74414
X29.44508Y63.13074
X37.70008Y68.74414
X38.97008Y68.74414
X27.59088Y63.13074
X26.32088Y63.13074
X30.72028Y63.12734
X15.14968Y51.63754
X15.14968Y50.49454
X35.84588Y68.74414
X15.14968Y52.78054
X19.21368Y47.44654
X88.96248Y49.71614
X11.46668Y50.77394
X31.66688Y36.95515
X31.62948Y33.65734
X83.09508Y48.11594
X83.70468Y47.37934
X31.87008Y32.76415
X32.79788Y35.99414
X30.52388Y37.20915
X42.01808Y51.66594
X72.40168Y28.20234
X38.89388Y32.92074
X26.26528Y44.88714
X39.24948Y43.89354
X4.97088Y32.65475
X81.82508Y37.70194
X10.07628Y39.03015
X7.25688Y32.78175
X87.91707Y45.72333
X8.39328Y45.41454
X63.89268Y22.53814
X73.13828Y41.15634
X72.68108Y40.44514
X63.87408Y23.41074
X43.26268Y54.79014
X42.01808Y52.65654
X38.53828Y44.78254
X14.34348Y35.16935
X12.69248Y33.41675
X8.03288Y28.52654
X89.03868Y48.77634
X14.91628Y42.75054
X19.21368Y50.62154
X42.70388Y33.86054
X22.98868Y45.26814
X39.08438Y48.40204
X38.90658Y46.09064
X11.59368Y47.57354
X31.8904Y23.48807
X46.32338Y51.32304
X84.53794Y58.74286
X89.20124Y56.61478
X130.73938Y53.95727
X123.67818Y57.64027
T03
X128.09256Y40.37616
X111.05834Y40.37616
X22.72531Y72.95116
X120.72651Y69.91781
X125.36757Y69.91657
X126.84659Y71.0939
X126.23458Y69.51552
X126.99959Y67.5998
X126.74459Y72.37156
X32.90338Y85.52711
X59.32172Y82.87507
X90.30107Y5.28138
X89.74006Y6.97073
X33.51538Y86.19012
X59.2742Y83.6366
X90.96408Y5.93728
X122.30753Y43.70919
X121.44052Y30.19401
X126.54059Y74.15658
X126.89759Y66.20048
X79.75116Y80.93704
X131.69165Y62.72312
X91.52508Y4.5737
X107.61934Y77.418
X103.59029Y44.85714
X108.74136Y78.08101
X104.3553Y44.29613
X100.24737Y67.40138
X102.77428Y67.4245
X118.60788Y59.26439
X97.31721Y62.12043
X94.25717Y65.18047
X88.62387Y85.93138
X104.96731Y45.41814
X60.95374Y86.11834
X102.21327Y54.24126
X80.56577Y85.97641
X41.26748Y86.29474
X93.71408Y81.43138
X50.70261Y85.32573
X95.65042Y81.43138
X48.05057Y85.28746
X88.47766Y0.85065
X128.85757Y48.12826
X57.66371Y86.80475
X121.71747Y49.09727
X64.79937Y-2.98897
X62.24933Y-2.32596
X93.2081Y11.10178
X72.34747Y-2.37697
X83.39403Y81.87819
X85.17905Y80.88579
X118.60655Y6.54807
X63.21835Y3.94712
X65.77001Y3.94712
X73.03843Y17.92632
X120.54458Y12.38016
X126.86866Y12.38016
X58.15003Y5.57915
X126.30753Y47.51625
X110.08932Y49.04627
X81.3795Y59.33801
X5.21002Y59.10877
X5.21002Y65.99386
X76.96795Y24.09987
X13.72713Y67.01387
X121.97248Y46.90424
X126.91954Y46.85324
X73.2704Y29.53144
X73.4999Y60.58752
X73.4999Y76.29573
X74.26491Y60.63852
X75.08092Y60.64285
X75.1058Y77.41774
X127.48055Y43.02819
X76.04993Y60.58752
X76.04993Y76.85673
X77.27395Y61.35253
X118.55543Y43.02819
X76.11232Y19.68625
X126.66466Y79.35426
X77.17195Y72.52168
X67.4004Y-3.65198
X126.66466Y78.56895
X77.18333Y14.46534
X123.19661Y14.75918
X127.78667Y14.75918
X64.34988Y56.42174
X65.51286Y57.08475
X120.90158Y16.69539
X61.63733Y2.3151
X56.89427Y-3.5083
X72.14346Y2.4681
X70.68783Y58.16499
X74.26491Y75.73472
X86.53463Y-2.34044
X85.97363Y-1.67744
X72.73489Y76.95874
X84.95361Y-0.96343
X84.2906Y-0.09642
X76.66194Y59.97552
X84.2906Y5.24459
X77.32495Y77.06074
X80.31255Y24.0779
X103.74329Y57.37448
X96.76624Y22.42546
X96.07176Y23.00688
X83.7806Y23.61889
X90.61469Y24.1799
X91.30916Y25.40391
X88.47266Y25.50592
X104.33386Y16.3768
X122.15453Y82.82407
X106.37389Y39.4801
X120.98152Y79.93904
X120.98152Y79.16312
X120.9531Y80.68287
X104.99687Y15.71379
X107.0369Y38.76609
X105.65988Y15.20378
X107.69991Y40.1431
X106.27189Y14.64277
X108.41392Y42.59114
X106.8839Y14.13277
X107.4959Y13.46976
X110.37338Y87.10813
X111.24039Y87.15913
X89.08467Y47.6402
X75.25888Y8.00166
X78.08652Y7.95065
X91.5327Y45.34517
X106.37389Y49.21562
X63.74041Y46.38174
X85.46362Y43.30515
X77.71152Y52.02626
X101.62695Y3.8706
X30.20034Y9.94413
X44.55485Y5.35407
X106.9859Y48.25221
X90.97766Y16.57949
X88.98266Y16.52362
X25.20228Y12.23916
X25.76328Y9.92258
X27.01427Y5.76208
X28.21132Y5.76208
X40.56578Y1.98803
X52.64063Y3.62005
X83.13903Y8.77112
X84.82205Y14.12618
X87.72909Y16.88022
X83.06659Y39.9391
X89.92211Y16.52322
X94.76718Y16.52322
X93.23716Y9.48512
X87.09564Y26.06692
X93.39016Y8.26111
X106.14032Y8.05711
X89.99419Y44.89466
X88.49097Y46.26512
X113.39098Y21.26628
X115.21844Y20.60327
X114.35143Y21.11328
X118.89049Y24.32632
X124.29656Y29.68139
X125.05498Y35.24704
X128.01961Y32.69042
X130.26183Y37.28048
X110.83238Y37.84149
X110.22038Y46.29074
X92.50171Y47.99721
X102.24284Y43.25415
X132.60967Y36.46447
X110.35194Y43.25415
X107.00733Y60.0555
X115.72845Y64.61684
X118.04687Y68.1385
X120.72651Y66.40186
X121.74653Y68.1385
X126.48959Y75.22678
X130.16163Y76.29599
X130.11063Y79.76403
X131.58062Y77.97901
X123.32755Y79.56003
X124.06242Y79.56602
X123.32755Y78.79502
X124.06242Y78.79502
X122.95487Y81.54906
X113.94342Y79.35603
X115.06544Y77.367
X117.76847Y75.63298
X81.15Y80.93705
X108.66892Y13.46976
X97.65278Y1.94361
X96.47976Y2.65762
X98.36679Y2.65762
X121.84853Y71.75955
X110.91295Y26.57693
X110.91295Y25.19991
X110.96395Y24.35772
X86.38163Y26.83193
X87.09564Y27.44394
X87.80965Y28.00495
X95.61275Y29.58597
X94.94974Y23.00688
X85.15761Y23.00688
X97.44877Y20.45685
X97.44877Y32.136
X115.35001Y29.27996
X116.26802Y29.27996
X116.26802Y32.289
X123.00294Y29.17796
X111.18939Y15.76083
X113.07641Y15.76083
X110.14042Y13.89585
X115.26637Y15.98843
X71.61288Y26.26696
X75.08092Y19.52188
X79.44978Y16.76173
X74.67892Y17.27174
X78.08996Y14.38381
X79.05897Y14.43481
X82.68002Y14.43481
X84.72005Y12.39478
X90.22812Y12.39478
X119.11574Y19.33087
X119.04874Y18.46386
X119.7575Y26.41996
X83.49603Y11.78278
X89.61611Y11.78278
X120.42051Y26.92997
X118.94149Y25.75091
X82.23899Y61.11365
X52.60988Y81.63794
X23.19668Y31.98094
X99.98398Y55.00708
X100.52279Y53.39063
X27.60288Y27.68415
X25.59628Y27.73494
X67.39788Y32.44455
X68.13448Y29.21834
X115.55099Y26.0239
X115.55099Y24.77392
X114.30101Y26.03391
X114.30101Y24.77392
T04
X53.85398Y20.66525
X79.99628Y67.16594
X63.96888Y53.72934
X51.92928Y67.47074
X63.61328Y54.61834
X51.82768Y68.99474
X55.05348Y67.92794
X74.17448Y46.23034
X76.53668Y48.99894
X57.79668Y31.55514
X92.08668Y54.31354
X91.42628Y34.55234
X86.11768Y54.64374
X77.27848Y36.20334
X79.33588Y40.36894
X131.40727Y61.11995
X130.00278Y57.94507
X87.86647Y44.81174
X82.44993Y74.78574
X88.93188Y41.02334
X92.41688Y34.45074
X91.04528Y33.66334
X92.88958Y40.54886
X92.84868Y65.89594
X58.71108Y28.43094
X66.71208Y59.29194
X64.55308Y52.38314
X49.96828Y53.26614
X41.15968Y69.40114
X59.54928Y62.89874
X51.59388Y77.92954
X32.95028Y69.68394
X31.66688Y39.74915
X28.87288Y38.50455
X130.28218Y54.97327
X26.84088Y38.50455
X31.93428Y69.68394
X101.59988Y40.81174
X34.98228Y69.68394
X26.84088Y39.85075
X33.96628Y69.68394
X30.91828Y69.68394
X30.52388Y40.13015
X39.99128Y69.55354
X94.09328Y35.36514
X32.80988Y38.98715
X37.11588Y69.68394
X38.03028Y69.78554
X98.25888Y37.60034
X27.85688Y38.50455
X132.44118Y59.03727
X0.24777Y26.72174
X72.73188Y62.00974
X99.34588Y50.19274
X77.58328Y42.01994
X29.62808Y39.40374
X78.69947Y43.33814
X70.80148Y28.25314
X42.93248Y24.84354
X82.94188Y50.00824
X36.23208Y25.30674
X35.82568Y29.09134
X84.51748Y57.15834
X69.86168Y25.86554
X67.70268Y38.28614
X68.59168Y30.43754
X69.32828Y26.83074
X69.30288Y38.26074
X66.05168Y39.42914
X77.78128Y48.87194
X34.09848Y82.45674
X69.73742Y61.27642
X47.78908Y45.77914
X63.81648Y59.52054
X34.24072Y81.36454
X84.92388Y56.24394
X38.77958Y49.31644
X38.94388Y29.84734
X47.36478Y47.66544
X47.21238Y49.03704
X40.1818Y24.12486
X34.98228Y72.47794
X81.08848Y67.19134
X101.59988Y41.81175
X102.50068Y57.15834
X91.77767Y70.91812
X90.68968Y67.90254
X72.42708Y60.53654
X74.46978Y84.22522
X48.10138Y48.60524
X77.15128Y62.72516
X99.80828Y60.43494
T05
X59.6993Y-3.82505
X122.0236Y15.77919
X113.36098Y12.61715
X68.31841Y4.76313
X110.84377Y14.63719
X72.44027Y-4.43706
X97.62321Y67.62562
X96.20819Y67.76562
X97.98022Y71.80767
X5.35188Y34.88995
X12.23528Y31.84195
X9.41588Y34.22955
X31.15888Y34.66915
X9.81088Y26.44374
X66.50488Y84.30434
X16.27388Y31.18155
X60.76328Y66.11854
X26.96788Y35.93915
X34.22028Y28.95834
X97.99218Y53.39914
X97.82871Y45.488
X96.39187Y44.05116
T06
X50.28578Y47.66544
X50.26038Y49.64664
X27.88228Y24.94094
X8.75548Y27.70175
X93.48227Y45.63169
X95.40405Y56.17451
X43.70718Y37.40384
X44.41838Y54.75204
X3.59988Y36.01174
X25.21528Y24.94094
X3.59988Y38.61174
X29.33078Y75.71644
X36.13798Y48.85924
X7.58708Y25.97455
X43.35158Y38.52144
X38.15728Y72.47794
X44.69778Y52.08504
X66.28708Y22.90274
X64.00108Y21.50574
T07
X-1.704Y32.12177
X-1.704Y24.95954
X22.24424Y87.15913
X60.35084Y82.46681
X63.19777Y85.32284
X102.11127Y87.31213
X106.36086Y87.09011
T08
X129.3732Y50.95128
X54.01208Y26.09414
X133.53326Y57.32693
X11.33488Y38.50874
X48.49988Y18.51174
X9.37908Y49.81174
X36.49988Y18.51174
X2.24988Y52.51174
X129.13918Y52.68727
X52.74988Y52.51174
X36.50628Y34.82574
X67.93128Y42.73114
X57.02948Y19.61114
X39.4736Y86.68587
X48.54588Y73.50994
X100.43299Y59.4074
X119.36018Y56.49727
X64.12128Y66.04834
X131.93318Y53.95727
X35.34988Y27.68415
X45.00258Y77.57064
X88.57126Y31.97103
X6.41208Y47.64974
X52.74988Y28.51174
X66.07708Y18.72814
X22.19988Y51.31174
X51.02238Y48.63064
X30.49988Y18.51174
X3.80248Y32.47695
X38.66288Y22.45954
X98.54714Y41.8959
X129.4242Y61.95325
X72.70648Y63.25434
X55.02808Y26.80534
X24.49988Y18.51174
X16.40088Y36.08375
X46.49988Y60.01174
X63.99428Y38.54014
X71.15188Y70.71594
X17.56268Y49.09754
X53.4702Y86.73687
X61.96228Y35.33974
X52.74988Y40.51175
X28.94908Y23.36615
X74.02728Y34.32374
X48.49988Y56.51174
X24.49988Y56.51174
X13.24468Y49.09754
X124.05918Y56.49727
X33.49988Y55.01174
X20.98208Y46.03014
X17.62311Y69.83676
X99.06648Y33.96214
X44.12838Y31.83944
X8.31728Y21.11794
X2.24988Y40.51175
X37.09048Y28.88214
X54.79428Y75.59274
X42.49988Y56.51174
X5.44688Y45.43994
X64.78168Y31.58054
X46.66628Y31.44754
X2.24988Y46.51174
X27.17968Y47.52874
X69.02005Y45.41616
X55.76468Y30.51374
X39.98368Y25.86314
X95.42201Y51.09168
X3.80248Y34.58515
X16.16568Y45.28754
X12.49988Y18.51174
X78.44688Y33.76494
X6.49988Y56.51174
X54.05768Y28.19634
X93.7876Y62.10148
X10.36968Y40.61694
X95.69141Y60.05398
X23.31028Y35.05015
X22.42128Y37.59015
X71.38576Y59.22559
X43.52938Y40.50264
X73.61687Y78.95496
X28.49988Y55.26174
X95.04484Y38.3936
X18.19768Y45.51614
X33.68688Y26.44374
X66.12788Y30.43754
X29.71178Y79.14544
X3.49988Y30.51174
X96.48168Y39.83044
X84.26853Y65.87319
X32.63278Y81.81244
X6.49988Y18.51174
X41.91648Y70.42054
X59.44768Y60.53654
X100.6126Y57.25214
X32.22568Y26.79515
X129.29218Y60.40927
X30.58058Y73.21114
X48.7706Y86.76396
X8.98408Y39.03015
X46.42498Y37.96264
X13.57008Y20.80494
X70.7821Y79.11564
X63.45568Y19.61114
X10.78748Y35.39795
X55.58008Y21.63394
X92.88958Y62.9995
X26.61228Y24.94094
X18.49988Y56.51174
X3.94868Y41.51194
X52.74988Y34.51174
X57.20708Y77.54333
X6.26628Y30.24175
X12.48268Y45.64314
X40.63378Y37.96264
X52.74988Y22.51175
X12.49988Y56.51174
X67.55028Y22.86834
X47.46638Y53.73604
X34.93148Y34.67334
X43.13328Y20.93554
X40.86028Y31.34775
X14.89568Y45.28754
X65.89928Y52.51014
X24.38568Y43.23614
X40.48138Y40.50264
X71.89796Y86.74564
X37.02698Y50.40864
X37.02698Y44.94764
X73.84948Y36.96534
X18.49988Y18.51174
X2.24988Y22.51175
X65.13728Y35.23814
X86.59508Y28.93294
X52.46268Y61.80654
X38.74988Y55.26174
X45.68838Y54.75204
X42.49988Y18.51174
X53.99988Y48.51174
X44.0456Y86.68587
X99.98398Y43.33274
X12.35088Y41.60754
X41.56088Y36.17194
X77.35373Y65.24457
X16.77048Y41.63294
X90.1955Y56.17451
X23.99851Y68.82076
X41.34498Y73.40504
X88.75866Y57.61135
X72.70648Y64.52434
X45.00258Y76.35144
X23.56428Y26.46494
X51.49988Y44.51174
X56.63508Y23.51235
X60.19108Y23.28374
X37.14648Y83.67594
X34.13138Y83.69204
X33.47028Y21.96915
X58.83808Y31.19954
X48.22838Y42.78864
X13.87558Y23.10494
X47.21238Y44.82064
X30.5933Y80.70307
X34.20688Y33.52615
X32.10458Y77.09734
X4.86928Y40.14775
X40.06228Y72.45254
X35.96018Y81.68544
X40.48138Y43.52524
X32.32798Y74.77664
X9.68458Y21.70794
X43.52938Y43.49984
X32.75228Y79.35794
X9.03488Y40.65575
X54.24068Y24.84954
X7.33168Y23.30835
X94.37268Y41.91834
X79.70656Y63.17911
X73.13301Y56.71333
X50.57788Y72.49394
X90.73431Y60.84424
X65.13728Y28.30394
X65.30988Y82.39994
X70.11568Y44.81394
X89.71928Y28.95834
X77.02448Y33.12994
X93.5613Y57.82328
X58.07608Y26.57674
X68.91229Y52.4926
X87.23201Y34.8913
X19.65511Y71.81796
X71.53288Y77.82794
X85.97478Y64.70575
X76.00669Y39.11202
X58.90908Y24.79274
X60.82608Y30.14174
X63.81128Y29.49174
X80.58662Y34.53209
X54.64188Y62.84194
X71.02488Y71.98594
X72.70648Y65.81974
X42.09948Y76.58934
X51.59388Y79.14874
X58.19788Y74.17034
X60.35084Y76.28775
X58.20308Y66.09914
T09
X21.73756Y65.11236
X101.54903Y72.13515
X89.02617Y74.32818
X88.05716Y83.9163
X120.72651Y73.49357
X118.99249Y67.4245
X116.95648Y63.85445
X105.27331Y51.3054
T10
X118.89049Y61.70681
T11
X120.94098Y14.45299
X114.57702Y8.08902
T12
X-0.3Y66.707
M30