G04 Layer: BottomSilkscreenLayer*
G04 EasyEDA Pro v3.2.91, 2026-07-29 11:30:49*
G04 Gerber Generator version 0.3*
G04 Scale: 100 percent, Rotated: No, Reflected: No*
G04 Dimensions in millimeters*
G04 Leading zeros omitted, absolute positions, 4 integers and 5 decimals*
G04 Panelize: V-CUT, Column: 1, Row: 1, Board Size: 260mm x 295.006mm, Panelized Board Size: 260mm x 295.006mm, Panelized Method: Only Board Outline*
G04 Generated by one-click*
%FSLAX45Y45*%
%MOMM*%
%ADD10C,0.11999*%
%ADD11C,0.17998*%
%ADD12C,0.1*%
%ADD13C,0.254*%
%ADD14C,0.3*%
%ADD15C,0.6842*%
G75*


G04 Text Start*
G36*
G01X12920263Y3321751D02*
G01X12905111Y3321448D01*
G01X12893823Y3321675D01*
G01X12889657Y3322357D01*
G01X12889051Y3341144D01*
G01X12889051Y3359023D01*
G01X12852081Y3359023D01*
G01X12851778Y3360538D01*
G01X12851475Y3376296D01*
G01X12851475Y3390538D01*
G01X12852990Y3390841D01*
G01X12871778Y3391144D01*
G01X12889051Y3391144D01*
G01X12889051Y3428114D01*
G01X12890566Y3428417D01*
G01X12906323Y3428720D01*
G01X12920566Y3428720D01*
G01X12920566Y3391751D01*
G01X12922081Y3391448D01*
G01X12940869Y3391144D01*
G01X12958142Y3391144D01*
G01X12958142Y3359629D01*
G01X12956626Y3359326D01*
G01X12937838Y3359023D01*
G01X12920566Y3359023D01*
G01X12920566Y3340538D01*
G01X12920263Y3321751D01*
G37*
G36*
G01X7308170Y6228672D02*
G01X7306957Y6234732D01*
G01X7306223Y6408066D01*
G01X7485139Y6408066D01*
G01X7485139Y6345035D01*
G01X7496048Y6346247D01*
G01X7534836Y6347459D01*
G01X7566351Y6348672D01*
G01X7577260Y6351096D01*
G01X7588169Y6354732D01*
G01X7595442Y6359581D01*
G01X7602715Y6365641D01*
G01X7609988Y6375338D01*
G01X7616048Y6389884D01*
G01X7619685Y6403217D01*
G01X7619685Y6411702D01*
G01X7618473Y6421399D01*
G01X7616048Y6432308D01*
G01X7611200Y6442005D01*
G01X7605139Y6449278D01*
G01X7599079Y6455338D01*
G01X7593018Y6460187D01*
G01X7584533Y6463823D01*
G01X7569988Y6467460D01*
G01X7556654Y6469884D01*
G01X7556654Y6469884D01*
G01X7542109Y6472308D01*
G01X7509382Y6473520D01*
G01X7486351Y6472308D01*
G01X7485139Y6408066D01*
G01X7306223Y6408066D01*
G01X7305745Y6520793D01*
G01X7308170Y6802005D01*
G01X7395442Y6803217D01*
G01X7459685Y6802308D01*
G01X7482715Y6799581D01*
G01X7485139Y6692914D01*
G01X7485139Y6589884D01*
G01X7546957Y6589884D01*
G01X7612412Y6588672D01*
G01X7639079Y6586247D01*
G01X7648776Y6583823D01*
G01X7660897Y6581399D01*
G01X7682715Y6574126D01*
G01X7692412Y6570490D01*
G01X7709382Y6563217D01*
G01X7719079Y6557157D01*
G01X7731200Y6548672D01*
G01X7757867Y6522005D01*
G01X7762715Y6514732D01*
G01X7766351Y6507460D01*
G01X7771200Y6498975D01*
G01X7776048Y6489278D01*
G01X7779685Y6480793D01*
G01X7783321Y6471096D01*
G01X7788170Y6451702D01*
G01X7790594Y6439581D01*
G01X7791806Y6428672D01*
G01X7793018Y6402005D01*
G01X7791806Y6375338D01*
G01X7789382Y6358369D01*
G01X7785745Y6346247D01*
G01X7782109Y6332914D01*
G01X7778473Y6324429D01*
G01X7771200Y6309884D01*
G01X7765139Y6300187D01*
G01X7756654Y6288066D01*
G01X7742109Y6273520D01*
G01X7733624Y6266248D01*
G01X7722715Y6258975D01*
G01X7713018Y6252914D01*
G01X7691200Y6243217D01*
G01X7680291Y6239581D01*
G01X7660897Y6234732D01*
G01X7645139Y6232308D01*
G01X7631806Y6229884D01*
G01X7468169Y6228672D01*
G01X7308170Y6228672D01*
G37*
G36*
G01X8014836Y6806854D02*
G01X8031806Y6809278D01*
G01X8053624Y6810490D01*
G01X8068170Y6811702D01*
G01X8077866Y6811702D01*
G01X8100897Y6810490D01*
G01X8119079Y6809278D01*
G01X8136048Y6806854D01*
G01X8146957Y6804429D01*
G01X8159079Y6800793D01*
G01X8180897Y6793520D01*
G01X8191806Y6788672D01*
G01X8208776Y6780187D01*
G01X8214836Y6776551D01*
G01X8223321Y6770490D01*
G01X8231806Y6763217D01*
G01X8243927Y6753520D01*
G01X8256048Y6741399D01*
G01X8263321Y6731702D01*
G01X8273018Y6719581D01*
G01X8281503Y6707460D01*
G01X8292412Y6685641D01*
G01X8297261Y6673520D01*
G01X8302109Y6657763D01*
G01X8305745Y6644429D01*
G01X8308170Y6632308D01*
G01X8309382Y6616550D01*
G01X8310594Y6603217D01*
G01X8311806Y6587460D01*
G01X8310594Y6571702D01*
G01X8308170Y6547460D01*
G01X8305745Y6537763D01*
G01X8302109Y6526854D01*
G01X8298473Y6514732D01*
G01X8294836Y6503823D01*
G01X8285139Y6484429D01*
G01X8280291Y6477156D01*
G01X8268169Y6460187D01*
G01X8260897Y6450490D01*
G01X8246351Y6435944D01*
G01X8231806Y6423823D01*
G01X8209988Y6409278D01*
G01X8201503Y6405641D01*
G01X8191806Y6400793D01*
G01X8180897Y6395945D01*
G01X8168776Y6392308D01*
G01X8157867Y6388672D01*
G01X8144533Y6385035D01*
G01X8131200Y6382611D01*
G01X8109382Y6380187D01*
G01X8075442Y6377763D01*
G01X8064533Y6376551D01*
G01X8053624Y6377763D01*
G01X8024533Y6380187D01*
G01X8007563Y6382611D01*
G01X7996654Y6385035D01*
G01X7985745Y6388672D01*
G01X7976048Y6392308D01*
G01X7965139Y6395945D01*
G01X7955442Y6399581D01*
G01X7948170Y6403217D01*
G01X7939685Y6408066D01*
G01X7927564Y6415338D01*
G01X7915442Y6423823D01*
G01X7906958Y6431096D01*
G01X7888776Y6449278D01*
G01X7874230Y6466247D01*
G01X7869382Y6473520D01*
G01X7865745Y6480793D01*
G01X7860897Y6489278D01*
G01X7851200Y6508672D01*
G01X7846351Y6519581D01*
G01X7842715Y6532914D01*
G01X7840291Y6545035D01*
G01X7835442Y6564429D01*
G01X7834447Y6592308D01*
G01X7994230Y6592308D01*
G01X7995442Y6566854D01*
G01X7997866Y6554732D01*
G01X8001503Y6541399D01*
G01X8006351Y6530490D01*
G01X8011200Y6520793D01*
G01X8016048Y6513520D01*
G01X8022109Y6507460D01*
G01X8030594Y6501399D01*
G01X8041503Y6495338D01*
G01X8051200Y6491702D01*
G01X8063321Y6489278D01*
G01X8079079Y6488066D01*
G01X8089988Y6489278D01*
G01X8100897Y6492914D01*
G01X8114230Y6500187D01*
G01X8122715Y6507460D01*
G01X8128775Y6514732D01*
G01X8136048Y6525642D01*
G01X8142109Y6538975D01*
G01X8145745Y6554732D01*
G01X8148170Y6569278D01*
G01X8149382Y6599581D01*
G01X8148170Y6627460D01*
G01X8145745Y6644429D01*
G01X8142109Y6654126D01*
G01X8137260Y6665035D01*
G01X8129988Y6675944D01*
G01X8115442Y6690490D01*
G01X8106957Y6695338D01*
G01X8096048Y6698975D01*
G01X8096048Y6698975D01*
G01X8085139Y6701399D01*
G01X8075442Y6702611D01*
G01X8068170Y6702611D01*
G01X8057260Y6701399D01*
G01X8045139Y6698975D01*
G01X8035442Y6694126D01*
G01X8024533Y6686854D01*
G01X8014836Y6675944D01*
G01X8008776Y6663823D01*
G01X8003927Y6652914D01*
G01X7999079Y6639581D01*
G01X7996654Y6626247D01*
G01X7995442Y6617762D01*
G01X7994230Y6592308D01*
G01X7834447Y6592308D01*
G01X7834230Y6598369D01*
G01X7835442Y6632308D01*
G01X7839079Y6644429D01*
G01X7842715Y6661399D01*
G01X7846351Y6673520D01*
G01X7856048Y6695338D01*
G01X7860897Y6703823D01*
G01X7866957Y6713520D01*
G01X7874230Y6724429D01*
G01X7881503Y6732914D01*
G01X7905745Y6757156D01*
G01X7911806Y6762005D01*
G01X7920291Y6768066D01*
G01X7931200Y6775338D01*
G01X7942109Y6781399D01*
G01X7951806Y6786248D01*
G01X7960291Y6791096D01*
G01X7969988Y6794732D01*
G01X7978472Y6797157D01*
G01X8002715Y6804429D01*
G01X8014836Y6806854D01*
G37*
G36*
G01X8460897Y6386248D02*
G01X8389381Y6386248D01*
G01X8389381Y6444429D01*
G01X8538473Y6444429D01*
G01X8539685Y6443520D01*
G01X8539685Y6443520D01*
G01X8540897Y6445641D01*
G01X8541200Y6448066D01*
G01X8539685Y6448066D01*
G01X8538473Y6444429D01*
G01X8389381Y6444429D01*
G01X8389381Y6593520D01*
G01X8390594Y6802005D01*
G01X8468170Y6803217D01*
G01X8526048Y6802308D01*
G01X8546957Y6799581D01*
G01X8549382Y6708672D01*
G01X8550594Y6617762D01*
G01X8553018Y6591096D01*
G01X8555442Y6574126D01*
G01X8560291Y6554732D01*
G01X8563927Y6545035D01*
G01X8568776Y6534126D01*
G01X8573624Y6526854D01*
G01X8578473Y6520793D01*
G01X8586957Y6513520D01*
G01X8596654Y6507460D01*
G01X8608776Y6503823D01*
G01X8628169Y6502611D01*
G01X8643927Y6505035D01*
G01X8654836Y6508672D01*
G01X8663321Y6511096D01*
G01X8665745Y6510490D01*
G01X8668169Y6506247D01*
G01X8677866Y6486853D01*
G01X8682715Y6475944D01*
G01X8692412Y6451702D01*
G01X8697260Y6440793D01*
G01X8702109Y6428672D01*
G01X8711806Y6409278D01*
G01X8713018Y6399581D01*
G01X8706957Y6394732D01*
G01X8697260Y6391096D01*
G01X8675442Y6383823D01*
G01X8665745Y6381399D01*
G01X8657260Y6378975D01*
G01X8637866Y6376551D01*
G01X8617260Y6378975D01*
G01X8606351Y6382611D01*
G01X8594230Y6387460D01*
G01X8583321Y6393520D01*
G01X8576048Y6399581D01*
G01X8569988Y6405641D01*
G01X8562715Y6414126D01*
G01X8548170Y6435944D01*
G01X8542109Y6442005D01*
G01X8539685Y6416551D01*
G01X8538776Y6396854D01*
G01X8536048Y6388672D01*
G01X8460897Y6386248D01*
G37*
G36*
G01X9222109Y6806854D02*
G01X9236654Y6809278D01*
G01X9254836Y6810490D01*
G01X9265745Y6811702D01*
G01X9275442Y6811702D01*
G01X9293624Y6810490D01*
G01X9306957Y6809278D01*
G01X9326351Y6806854D01*
G01X9345745Y6802005D01*
G01X9356654Y6798369D01*
G01X9368776Y6793520D01*
G01X9379685Y6788672D01*
G01X9388169Y6783823D01*
G01X9394230Y6778975D01*
G01X9402715Y6772914D01*
G01X9413624Y6765641D01*
G01X9424533Y6759581D01*
G01X9428472Y6759278D01*
G01X9430594Y6763217D01*
G01X9434230Y6777763D01*
G01X9439078Y6789884D01*
G01X9443927Y6797157D01*
G01X9452412Y6802005D01*
G01X9525139Y6803217D01*
G01X9575442Y6802308D01*
G01X9593018Y6799581D01*
G01X9591806Y6792308D01*
G01X9586957Y6781399D01*
G01X9582109Y6765641D01*
G01X9579684Y6751096D01*
G01X9578472Y6741399D01*
G01X9576048Y6513520D01*
G01X9571200Y6489278D01*
G01X9567563Y6477156D01*
G01X9562715Y6465035D01*
G01X9559078Y6456550D01*
G01X9554230Y6446854D01*
G01X9546957Y6435944D01*
G01X9539685Y6427460D01*
G01X9533624Y6421399D01*
G01X9525139Y6414126D01*
G01X9516654Y6408066D01*
G01X9509382Y6403217D01*
G01X9487563Y6393520D01*
G01X9474230Y6388672D01*
G01X9454836Y6385035D01*
G01X9435442Y6382611D01*
G01X9423321Y6380187D01*
G01X9374836Y6377763D01*
G01X9345745Y6376551D01*
G01X9316654Y6377763D01*
G01X9287563Y6380187D01*
G01X9273018Y6382611D01*
G01X9256048Y6385035D01*
G01X9243927Y6387460D01*
G01X9230594Y6391096D01*
G01X9218473Y6395945D01*
G01X9208776Y6399581D01*
G01X9199079Y6404429D01*
G01X9189381Y6410490D01*
G01X9178472Y6417763D01*
G01X9163927Y6432308D01*
G01X9157866Y6439581D01*
G01X9153018Y6446854D01*
G01X9148169Y6455338D01*
G01X9143321Y6465035D01*
G01X9139685Y6473520D01*
G01X9136048Y6483217D01*
G01X9133624Y6492914D01*
G01X9132412Y6501399D01*
G01X9132412Y6504429D01*
G01X9134836Y6506247D01*
G01X9183321Y6511096D01*
G01X9205139Y6513520D01*
G01X9219685Y6515945D01*
G01X9235442Y6517157D01*
G01X9243927Y6518369D01*
G01X9270594Y6520793D01*
G01X9279078Y6520793D01*
G01X9283018Y6518672D01*
G01X9285139Y6514732D01*
G01X9288775Y6506247D01*
G01X9294836Y6496550D01*
G01X9304533Y6486853D01*
G01X9317866Y6480793D01*
G01X9331200Y6477156D01*
G01X9342109Y6474732D01*
G01X9366351Y6473520D01*
G01X9390594Y6475944D01*
G01X9400291Y6479581D01*
G01X9407563Y6484429D01*
G01X9412412Y6491702D01*
G01X9417260Y6503823D01*
G01X9419684Y6518369D01*
G01X9417866Y6523520D01*
G01X9412412Y6526854D01*
G01X9400291Y6531702D01*
G01X9389382Y6535338D01*
G01X9379685Y6537763D01*
G01X9357866Y6545035D01*
G01X9321503Y6552308D01*
G01X9308169Y6555944D01*
G01X9292412Y6559581D01*
G01X9277866Y6562005D01*
G01X9251200Y6566854D01*
G01X9231806Y6571702D01*
G01X9219685Y6575338D01*
G01X9205139Y6578975D01*
G01X9195442Y6582611D01*
G01X9184533Y6587460D01*
G01X9172412Y6593520D01*
G01X9162715Y6599581D01*
G01X9155442Y6604429D01*
G01X9150594Y6609278D01*
G01X9140897Y6621399D01*
G01X9134836Y6629884D01*
G01X9128775Y6642005D01*
G01X9123927Y6652914D01*
G01X9120291Y6668672D01*
G01X9119451Y6679581D01*
G01X9279078Y6679581D01*
G01X9282715Y6661399D01*
G01X9288775Y6651702D01*
G01X9296048Y6646854D01*
G01X9304533Y6643217D01*
G01X9314230Y6638369D01*
G01X9328775Y6633520D01*
G01X9345745Y6628672D01*
G01X9357866Y6625035D01*
G01X9368776Y6621399D01*
G01X9383321Y6617762D01*
G01X9395442Y6614126D01*
G01X9405139Y6610490D01*
G01X9413624Y6608066D01*
G01X9416654Y6608066D01*
G01X9418472Y6610490D01*
G01X9419684Y6633520D01*
G01X9418472Y6656551D01*
G01X9416048Y6666248D01*
G01X9412412Y6675944D01*
G01X9407563Y6684429D01*
G01X9401503Y6691702D01*
G01X9395442Y6697763D01*
G01X9386957Y6705035D01*
G01X9374836Y6711096D01*
G01X9361503Y6715944D01*
G01X9345745Y6719581D01*
G01X9345745Y6719581D01*
G01X9333624Y6722005D01*
G01X9323927Y6723217D01*
G01X9316654Y6722005D01*
G01X9308169Y6719581D01*
G01X9297260Y6715944D01*
G01X9289988Y6711096D01*
G01X9285139Y6705035D01*
G01X9281503Y6696550D01*
G01X9279078Y6679581D01*
G01X9119451Y6679581D01*
G01X9119079Y6684429D01*
G01X9117866Y6692914D01*
G01X9117866Y6700187D01*
G01X9120291Y6722005D01*
G01X9123927Y6731702D01*
G01X9128775Y6741399D01*
G01X9133624Y6749884D01*
G01X9138472Y6757156D01*
G01X9143321Y6763217D01*
G01X9155442Y6775338D01*
G01X9163927Y6782611D01*
G01X9174836Y6789884D01*
G01X9186957Y6795944D01*
G01X9199079Y6800793D01*
G01X9209988Y6804429D01*
G01X9222109Y6806854D01*
G37*
G36*
G01X8889988Y6803217D02*
G01X8898472Y6805641D01*
G01X8906957Y6806854D01*
G01X8913018Y6809278D01*
G01X8961503Y6810490D01*
G01X9011200Y6809278D01*
G01X9023321Y6806854D01*
G01X9036654Y6805641D01*
G01X9045139Y6804429D01*
G01X9057260Y6800793D01*
G01X9063927Y6798066D01*
G01X9066957Y6794732D01*
G01X9066957Y6785035D01*
G01X9065745Y6769278D01*
G01X9064533Y6755944D01*
G01X9062109Y6743823D01*
G01X9060897Y6728066D01*
G01X9059685Y6717156D01*
G01X9058472Y6703823D01*
G01X9057563Y6695944D01*
G01X9054836Y6691702D01*
G01X9047563Y6690490D01*
G01X9037866Y6692914D01*
G01X9023321Y6695338D01*
G01X9003927Y6696550D01*
G01X8989382Y6694126D01*
G01X8983321Y6689278D01*
G01X8978473Y6680793D01*
G01X8976048Y6588672D01*
G01X8976048Y6502611D01*
G01X8984533Y6503823D01*
G01X9025745Y6505035D01*
G01X9058472Y6505035D01*
G01X9059685Y6498975D01*
G01X9060897Y6439581D01*
G01X9060897Y6386248D01*
G01X8973624Y6386248D01*
G01X8974836Y6377763D01*
G01X8976048Y6301399D01*
G01X8973624Y6232308D01*
G01X8967563Y6232308D01*
G01X8882715Y6274732D01*
G01X8865745Y6284429D01*
G01X8831806Y6301399D01*
G01X8820897Y6307460D01*
G01X8814836Y6314732D01*
G01X8813624Y6352308D01*
G01X8813624Y6386248D01*
G01X8757866Y6386248D01*
G01X8756654Y6392308D01*
G01X8755442Y6450490D01*
G01X8755442Y6502611D01*
G01X8763927Y6503823D01*
G01X8790594Y6505035D01*
G01X8811200Y6503823D01*
G01X8813018Y6523520D01*
G01X8813624Y6585035D01*
G01X8814836Y6671096D01*
G01X8817260Y6712308D01*
G01X8823321Y6736550D01*
G01X8828170Y6749884D01*
G01X8833018Y6760793D01*
G01X8839079Y6769278D01*
G01X8857260Y6787460D01*
G01X8863321Y6792308D01*
G01X8870594Y6795944D01*
G01X8889988Y6803217D01*
G37*
G36*
G01X9686351Y6228672D02*
G01X9685139Y6234732D01*
G01X9684430Y6402005D01*
G01X9863321Y6402005D01*
G01X9863321Y6345035D01*
G01X9908169Y6345035D01*
G01X9962715Y6346247D01*
G01X9976048Y6348672D01*
G01X9986957Y6351096D01*
G01X9999079Y6355944D01*
G01X10007563Y6362005D01*
G01X10013624Y6370490D01*
G01X10017260Y6380187D01*
G01X10020897Y6392308D01*
G01X10023321Y6405641D01*
G01X10022109Y6414126D01*
G01X10018472Y6423823D01*
G01X10013624Y6433520D01*
G01X10007563Y6439581D01*
G01X10001503Y6444429D01*
G01X9993018Y6449278D01*
G01X9982109Y6452914D01*
G01X9973624Y6455338D01*
G01X9959078Y6457763D01*
G01X9959078Y6457763D01*
G01X9939684Y6460187D01*
G01X9898472Y6461399D01*
G01X9864533Y6460187D01*
G01X9863321Y6402005D01*
G01X9684430Y6402005D01*
G01X9683927Y6520793D01*
G01X9686351Y6802005D01*
G01X9773624Y6803217D01*
G01X9837866Y6802308D01*
G01X9860897Y6799581D01*
G01X9863321Y6683217D01*
G01X9863321Y6570490D01*
G01X9875442Y6570490D01*
G01X9891200Y6571702D01*
G01X9903321Y6574126D01*
G01X9914230Y6578975D01*
G01X9926351Y6588672D01*
G01X9932412Y6594732D01*
G01X9938472Y6603217D01*
G01X9953018Y6628672D01*
G01X9956654Y6634732D01*
G01X9960290Y6642005D01*
G01X9965139Y6650490D01*
G01X9971200Y6661399D01*
G01X9982109Y6683217D01*
G01X9991806Y6700187D01*
G01X9996654Y6709884D01*
G01X10008776Y6731702D01*
G01X10013624Y6741399D01*
G01X10023321Y6758369D01*
G01X10033018Y6777763D01*
G01X10045139Y6797157D01*
G01X10053624Y6802005D01*
G01X10151806Y6803217D01*
G01X10220897Y6802005D01*
G01X10243927Y6798369D01*
G01X10241503Y6789884D01*
G01X10226957Y6760793D01*
G01X10222109Y6752308D01*
G01X10214836Y6737762D01*
G01X10211200Y6731702D01*
G01X10188169Y6685641D01*
G01X10183321Y6677157D01*
G01X10173624Y6657763D01*
G01X10161503Y6635944D01*
G01X10156654Y6627460D01*
G01X10150594Y6617762D01*
G01X10144533Y6609278D01*
G01X10139685Y6603217D01*
G01X10133624Y6597156D01*
G01X10123927Y6585035D01*
G01X10111806Y6572914D01*
G01X10104533Y6568066D01*
G01X10096048Y6563217D01*
G01X10086351Y6558369D01*
G01X10075442Y6553520D01*
G01X10071200Y6551096D01*
G01X10070594Y6548672D01*
G01X10079078Y6545035D01*
G01X10091200Y6541399D01*
G01X10103321Y6536551D01*
G01X10114230Y6531702D01*
G01X10121503Y6528066D01*
G01X10127563Y6524429D01*
G01X10142109Y6514732D01*
G01X10148169Y6509884D01*
G01X10160291Y6497763D01*
G01X10166351Y6490490D01*
G01X10171200Y6483217D01*
G01X10177260Y6474732D01*
G01X10184533Y6462611D01*
G01X10189381Y6451702D01*
G01X10193018Y6442005D01*
G01X10195442Y6432308D01*
G01X10196654Y6423823D01*
G01X10199078Y6414126D01*
G01X10200290Y6383823D01*
G01X10199078Y6355944D01*
G01X10196654Y6346247D01*
G01X10193018Y6332914D01*
G01X10188169Y6320793D01*
G01X10183321Y6309884D01*
G01X10178472Y6301399D01*
G01X10172412Y6292914D01*
G01X10165139Y6284429D01*
G01X10146957Y6266248D01*
G01X10140897Y6261399D01*
G01X10133624Y6257763D01*
G01X10125139Y6252914D01*
G01X10114230Y6248066D01*
G01X10104533Y6244429D01*
G01X10080290Y6237157D01*
G01X10060897Y6234732D01*
G01X10026957Y6229884D01*
G01X9854836Y6228672D01*
G01X9686351Y6228672D01*
G37*
G36*
G01X11265745Y6806854D02*
G01X11277866Y6809278D01*
G01X11293624Y6810490D01*
G01X11302109Y6811702D01*
G01X11332412Y6812914D01*
G01X11365139Y6811702D01*
G01X11396654Y6809278D01*
G01X11425745Y6804429D01*
G01X11437866Y6800793D01*
G01X11452412Y6797157D01*
G01X11462109Y6793520D01*
G01X11470594Y6789884D01*
G01X11480290Y6786248D01*
G01X11502109Y6774126D01*
G01X11511806Y6768066D01*
G01X11520290Y6762005D01*
G01X11529987Y6754732D01*
G01X11544533Y6740187D01*
G01X11550593Y6732914D01*
G01X11555442Y6725641D01*
G01X11560290Y6719581D01*
G01X11565139Y6712308D01*
G01X11574836Y6692914D01*
G01X11579684Y6682005D01*
G01X11584533Y6668672D01*
G01X11588169Y6652914D01*
G01X11590594Y6639581D01*
G01X11593018Y6625035D01*
G01X11594230Y6606853D01*
G01X11593018Y6595944D01*
G01X11590594Y6583823D01*
G01X11586957Y6568066D01*
G01X11583321Y6557157D01*
G01X11579684Y6548672D01*
G01X11574836Y6538975D01*
G01X11568775Y6528066D01*
G01X11562715Y6519581D01*
G01X11557866Y6513520D01*
G01X11545745Y6501399D01*
G01X11537260Y6494126D01*
G01X11513018Y6477156D01*
G01X11502109Y6471096D01*
G01X11493624Y6466247D01*
G01X11483927Y6461399D01*
G01X11471806Y6456550D01*
G01X11458472Y6451702D01*
G01X11447563Y6448066D01*
G01X11411199Y6437157D01*
G01X11394230Y6432308D01*
G01X11369987Y6426247D01*
G01X11357866Y6423823D01*
G01X11344533Y6420187D01*
G01X11334836Y6417763D01*
G01X11326351Y6416551D01*
G01X11309381Y6411702D01*
G01X11297260Y6408066D01*
G01X11285139Y6403217D01*
G01X11275442Y6398369D01*
G01X11265745Y6389884D01*
G01X11260896Y6377763D01*
G01X11259684Y6365641D01*
G01X11262109Y6355944D01*
G01X11266957Y6347459D01*
G01X11275442Y6338975D01*
G01X11286351Y6332914D01*
G01X11302109Y6329278D01*
G01X11328775Y6328066D01*
G01X11348169Y6329278D01*
G01X11357866Y6331702D01*
G01X11366351Y6335338D01*
G01X11372412Y6338975D01*
G01X11378472Y6343823D01*
G01X11384533Y6349884D01*
G01X11391806Y6358369D01*
G01X11397866Y6370490D01*
G01X11401502Y6381399D01*
G01X11403927Y6389884D01*
G01X11407563Y6397157D01*
G01X11412715Y6399884D01*
G01X11423321Y6400793D01*
G01X11440290Y6399581D01*
G01X11459684Y6397157D01*
G01X11505745Y6394732D01*
G01X11561502Y6392308D01*
G01X11568775Y6389884D01*
G01X11571503Y6386248D01*
G01X11572412Y6377763D01*
G01X11569987Y6363217D01*
G01X11567563Y6354732D01*
G01X11566351Y6346247D01*
G01X11562715Y6336550D01*
G01X11557866Y6324429D01*
G01X11553018Y6314732D01*
G01X11540896Y6295338D01*
G01X11533624Y6285641D01*
G01X11519078Y6271096D01*
G01X11511806Y6265035D01*
G01X11497260Y6255339D01*
G01X11486351Y6249278D01*
G01X11473018Y6243217D01*
G01X11462109Y6238369D01*
G01X11452412Y6234732D01*
G01X11433018Y6229884D01*
G01X11419684Y6226247D01*
G01X11402715Y6223823D01*
G01X11389381Y6222611D01*
G01X11350594Y6220187D01*
G01X11336048Y6218975D01*
G01X11321503Y6220187D01*
G01X11280290Y6222611D01*
G01X11265745Y6223823D01*
G01X11249987Y6226247D01*
G01X11234230Y6229884D01*
G01X11219684Y6233520D01*
G01X11197866Y6240793D01*
G01X11178472Y6250490D01*
G01X11168775Y6256551D01*
G01X11160290Y6262611D01*
G01X11154230Y6267460D01*
G01X11148169Y6273520D01*
G01X11140896Y6279581D01*
G01X11132412Y6288066D01*
G01X11120290Y6305035D01*
G01X11113018Y6317157D01*
G01X11106957Y6330490D01*
G01X11102109Y6343823D01*
G01X11098472Y6358369D01*
G01X11096048Y6370490D01*
G01X11094836Y6378975D01*
G01X11093624Y6386248D01*
G01X11093624Y6392308D01*
G01X11096048Y6411702D01*
G01X11098472Y6423823D01*
G01X11102109Y6435944D01*
G01X11109381Y6452914D01*
G01X11114230Y6461399D01*
G01X11121503Y6472308D01*
G01X11128775Y6482005D01*
G01X11140896Y6494126D01*
G01X11149381Y6501399D01*
G01X11157866Y6507460D01*
G01X11165139Y6512308D01*
G01X11173624Y6517157D01*
G01X11183321Y6523217D01*
G01X11195442Y6529278D01*
G01X11206351Y6534126D01*
G01X11218472Y6538975D01*
G01X11229381Y6543823D01*
G01X11262109Y6554732D01*
G01X11274230Y6558369D01*
G01X11283927Y6560793D01*
G01X11292412Y6562005D01*
G01X11303321Y6565641D01*
G01X11315442Y6568066D01*
G01X11325139Y6570490D01*
G01X11338472Y6574126D01*
G01X11350594Y6576550D01*
G01X11360290Y6580187D01*
G01X11373624Y6585035D01*
G01X11384533Y6589884D01*
G01X11403927Y6602005D01*
G01X11408775Y6608066D01*
G01X11412412Y6614126D01*
G01X11417260Y6623823D01*
G01X11419684Y6643217D01*
G01X11417260Y6658975D01*
G01X11412412Y6667460D01*
G01X11406351Y6674732D01*
G01X11400290Y6680793D01*
G01X11394230Y6685641D01*
G01X11386957Y6689278D01*
G01X11376048Y6694126D01*
G01X11362715Y6696550D01*
G01X11353018Y6697763D01*
G01X11336048Y6698975D01*
G01X11319078Y6697763D01*
G01X11309381Y6695338D01*
G01X11298472Y6691702D01*
G01X11287563Y6685641D01*
G01X11277866Y6679581D01*
G01X11271805Y6673520D01*
G01X11266957Y6667460D01*
G01X11260896Y6658975D01*
G01X11254836Y6646854D01*
G01X11249987Y6635944D01*
G01X11246351Y6622611D01*
G01X11243927Y6610490D01*
G01X11241503Y6604429D01*
G01X11229381Y6602005D01*
G01X11214836Y6603217D01*
G01X11163927Y6605641D01*
G01X11139684Y6608066D01*
G01X11100897Y6610490D01*
G01X11086351Y6611702D01*
G01X11077866Y6612914D01*
G01X11074230Y6616550D01*
G01X11074230Y6625035D01*
G01X11076654Y6642005D01*
G01X11079078Y6652914D01*
G01X11082715Y6665035D01*
G01X11089987Y6686854D01*
G01X11094836Y6697763D01*
G01X11109381Y6723217D01*
G01X11114230Y6729278D01*
G01X11121503Y6738975D01*
G01X11148169Y6765641D01*
G01X11155442Y6770490D01*
G01X11162715Y6774126D01*
G01X11169987Y6778975D01*
G01X11179684Y6783823D01*
G01X11190594Y6788672D01*
G01X11203927Y6793520D01*
G01X11219684Y6798369D01*
G01X11235442Y6802005D01*
G01X11246351Y6804429D01*
G01X11265745Y6806854D01*
G37*
G36*
G01X10306957Y6228672D02*
G01X10305745Y6234732D01*
G01X10304533Y6520793D01*
G01X10306957Y6802005D01*
G01X10394230Y6803217D01*
G01X10479078Y6803217D01*
G01X10480290Y6797157D01*
G01X10481503Y6679581D01*
G01X10481503Y6568066D01*
G01X10704533Y6568066D01*
G01X10704533Y6454126D01*
G01X10698472Y6452914D01*
G01X10586957Y6451702D01*
G01X10481503Y6451702D01*
G01X10481503Y6354732D01*
G01X10487563Y6353520D01*
G01X10617260Y6352308D01*
G01X10740896Y6352308D01*
G01X10742109Y6346247D01*
G01X10743321Y6285641D01*
G01X10743321Y6231096D01*
G01X10737260Y6229884D01*
G01X10519078Y6228672D01*
G01X10306957Y6228672D01*
G37*
G36*
G01X12306957Y6234732D02*
G01X12305527Y6402005D01*
G01X12486351Y6402005D01*
G01X12486351Y6345035D01*
G01X12531199Y6345035D01*
G01X12585745Y6346247D01*
G01X12599078Y6348672D01*
G01X12609987Y6351096D01*
G01X12622109Y6355944D01*
G01X12630593Y6362005D01*
G01X12635442Y6368066D01*
G01X12639078Y6375338D01*
G01X12642715Y6389884D01*
G01X12643927Y6409278D01*
G01X12641503Y6422611D01*
G01X12635442Y6433520D01*
G01X12625745Y6443217D01*
G01X12616048Y6449278D01*
G01X12606351Y6452914D01*
G01X12596654Y6455338D01*
G01X12582108Y6457763D01*
G01X12582108Y6457763D01*
G01X12562715Y6460187D01*
G01X12521503Y6461399D01*
G01X12487563Y6460187D01*
G01X12486351Y6402005D01*
G01X12305527Y6402005D01*
G01X12304533Y6518369D01*
G01X12305442Y6727459D01*
G01X12308169Y6799581D01*
G01X12332108Y6802308D01*
G01X12396654Y6803217D01*
G01X12460896Y6802005D01*
G01X12483927Y6798369D01*
G01X12486351Y6682005D01*
G01X12486351Y6570490D01*
G01X12498472Y6570490D01*
G01X12514230Y6571702D01*
G01X12525139Y6574126D01*
G01X12537260Y6578975D01*
G01X12545745Y6585035D01*
G01X12551805Y6591096D01*
G01X12559078Y6600793D01*
G01X12566351Y6611702D01*
G01X12571199Y6620187D01*
G01X12576048Y6629884D01*
G01X12588169Y6651702D01*
G01X12593017Y6661399D01*
G01X12599078Y6671096D01*
G01X12607563Y6688066D01*
G01X12617260Y6705035D01*
G01X12622109Y6714732D01*
G01X12628169Y6725641D01*
G01X12633018Y6734126D01*
G01X12636654Y6741399D01*
G01X12646351Y6758369D01*
G01X12653624Y6772914D01*
G01X12658472Y6781399D01*
G01X12664533Y6792308D01*
G01X12671805Y6800793D01*
G01X12769987Y6803217D01*
G01X12866957Y6800793D01*
G01X12866957Y6794732D01*
G01X12862108Y6785035D01*
G01X12849987Y6763217D01*
G01X12823321Y6709884D01*
G01X12811199Y6688066D01*
G01X12789381Y6644429D01*
G01X12784533Y6635944D01*
G01X12778472Y6626247D01*
G01X12771200Y6615338D01*
G01X12763927Y6606853D01*
G01X12754230Y6594732D01*
G01X12742108Y6580187D01*
G01X12729987Y6570490D01*
G01X12722714Y6565641D01*
G01X12713018Y6560793D01*
G01X12702108Y6555944D01*
G01X12693624Y6551096D01*
G01X12691805Y6548975D01*
G01X12693624Y6547460D01*
G01X12705745Y6543823D01*
G01X12720290Y6538975D01*
G01X12732411Y6534126D01*
G01X12742108Y6529278D01*
G01X12761502Y6517157D01*
G01X12773624Y6507460D01*
G01X12779684Y6501399D01*
G01X12789381Y6489278D01*
G01X12796654Y6479581D01*
G01X12803927Y6467460D01*
G01X12808775Y6457763D01*
G01X12813624Y6446854D01*
G01X12817260Y6435944D01*
G01X12819684Y6423823D01*
G01X12822108Y6409278D01*
G01X12823321Y6383823D01*
G01X12822108Y6360793D01*
G01X12819684Y6347459D01*
G01X12816048Y6334126D01*
G01X12812412Y6324429D01*
G01X12807563Y6313520D01*
G01X12801502Y6303823D01*
G01X12796654Y6295338D01*
G01X12791806Y6288066D01*
G01X12773624Y6269884D01*
G01X12767563Y6265035D01*
G01X12742108Y6250490D01*
G01X12732411Y6245641D01*
G01X12708169Y6238369D01*
G01X12696048Y6235944D01*
G01X12683927Y6234732D01*
G01X12664533Y6232308D01*
G01X12649987Y6229884D01*
G01X12474230Y6228672D01*
G01X12309381Y6228672D01*
G01X12306957Y6234732D01*
G37*
G36*
G01X11686351Y6228672D02*
G01X11685139Y6234732D01*
G01X11683963Y6512308D01*
G01X11860897Y6512308D01*
G01X11860897Y6362005D01*
G01X11866957Y6360793D01*
G01X11900896Y6359581D01*
G01X11932411Y6360793D01*
G01X11959078Y6365641D01*
G01X11968775Y6369278D01*
G01X11979684Y6374126D01*
G01X11988169Y6378975D01*
G01X11997866Y6386248D01*
G01X12005139Y6394732D01*
G01X12008775Y6400793D01*
G01X12013624Y6409278D01*
G01X12018472Y6418975D01*
G01X12022109Y6429884D01*
G01X12029381Y6462611D01*
G01X12031806Y6484429D01*
G01X12033018Y6523217D01*
G01X12031806Y6562005D01*
G01X12030593Y6572914D01*
G01X12028169Y6585035D01*
G01X12025745Y6595944D01*
G01X12024533Y6605641D01*
G01X12020896Y6615338D01*
G01X12016048Y6625035D01*
G01X12011199Y6633520D01*
G01X12005139Y6640793D01*
G01X11993018Y6652914D01*
G01X11985745Y6657763D01*
G01X11977260Y6661399D01*
G01X11968775Y6663823D01*
G01X11959078Y6666248D01*
G01X11948169Y6667460D01*
G01X11939684Y6668672D01*
G01X11939684Y6668672D01*
G01X11903321Y6669884D01*
G01X11868169Y6671096D01*
G01X11864533Y6671096D01*
G01X11862109Y6666248D01*
G01X11860897Y6512308D01*
G01X11683963Y6512308D01*
G01X11683927Y6520793D01*
G01X11686351Y6802005D01*
G01X11830593Y6803217D01*
G01X11976048Y6802005D01*
G01X11988169Y6799581D01*
G01X12007563Y6797157D01*
G01X12025745Y6793520D01*
G01X12041502Y6789884D01*
G01X12053624Y6786248D01*
G01X12070593Y6781399D01*
G01X12081502Y6776551D01*
G01X12091199Y6771702D01*
G01X12098472Y6766854D01*
G01X12108169Y6760793D01*
G01X12116654Y6754732D01*
G01X12122715Y6748672D01*
G01X12134836Y6738975D01*
G01X12140896Y6732914D01*
G01X12148169Y6724429D01*
G01X12154230Y6715944D01*
G01X12163927Y6703823D01*
G01X12169987Y6695338D01*
G01X12177260Y6683217D01*
G01X12183321Y6671096D01*
G01X12188169Y6660187D01*
G01X12193018Y6648066D01*
G01X12196654Y6635944D01*
G01X12199078Y6627460D01*
G01X12201502Y6617762D01*
G01X12203927Y6605641D01*
G01X12206351Y6595944D01*
G01X12208775Y6571702D01*
G01X12211199Y6520793D01*
G01X12212411Y6509884D01*
G01X12211199Y6498975D01*
G01X12208775Y6457763D01*
G01X12207563Y6446854D01*
G01X12205139Y6434732D01*
G01X12202714Y6423823D01*
G01X12201502Y6414126D01*
G01X12197866Y6403217D01*
G01X12194230Y6389884D01*
G01X12186957Y6370490D01*
G01X12183321Y6362005D01*
G01X12176048Y6347459D01*
G01X12166351Y6330490D01*
G01X12156654Y6315944D01*
G01X12151806Y6309884D01*
G01X12127563Y6285641D01*
G01X12120290Y6279581D01*
G01X12113018Y6274732D01*
G01X12104533Y6268672D01*
G01X12093624Y6261399D01*
G01X12076654Y6252914D01*
G01X12068169Y6249278D01*
G01X12058472Y6245641D01*
G01X12047563Y6242005D01*
G01X12035442Y6238369D01*
G01X12024533Y6235944D01*
G01X12005139Y6233520D01*
G01X11994230Y6231096D01*
G01X11837866Y6228672D01*
G01X11686351Y6228672D01*
G37*
G36*
G01X8437458Y8044941D02*
G01X8437458Y7763123D01*
G01X7981700Y7763123D01*
G01X7981700Y7912213D01*
G01X7996246Y7912213D01*
G01X7996549Y7841001D01*
G01X7996852Y7839486D01*
G01X8034124Y7839486D01*
G01X8072306Y7839789D01*
G01X8075033Y7840395D01*
G01X8079579Y7841001D01*
G01X8083215Y7841608D01*
G01X8085639Y7842214D01*
G01X8088973Y7843123D01*
G01X8092003Y7844335D01*
G01X8094730Y7845547D01*
G01X8097155Y7846759D01*
G01X8099276Y7847971D01*
G01X8101700Y7849486D01*
G01X8103821Y7851001D01*
G01X8105337Y7852214D01*
G01X8107458Y7854032D01*
G01X8109882Y7855850D01*
G01X8112306Y7858880D01*
G01X8113821Y7860395D01*
G01X8115034Y7861910D01*
G01X8116549Y7864032D01*
G01X8118064Y7866456D01*
G01X8120488Y7870698D01*
G01X8122306Y7874941D01*
G01X8123215Y7877365D01*
G01X8125034Y7882820D01*
G01X8126246Y7887668D01*
G01X8126852Y7890698D01*
G01X8127458Y7894941D01*
G01X8128064Y7898577D01*
G01X8128367Y7910395D01*
G01X8128353Y7911001D01*
G01X8152003Y7911001D01*
G01X8152003Y7839486D01*
G01X8204731Y7839486D01*
G01X8259579Y7839789D01*
G01X8261700Y7840092D01*
G01X8261700Y7853729D01*
G01X8261397Y7868880D01*
G01X8261094Y7870395D01*
G01X8196246Y7870395D01*
G01X8196246Y7884638D01*
G01X8284730Y7884638D01*
G01X8285033Y7841001D01*
G01X8285336Y7839486D01*
G01X8305943Y7839486D01*
G01X8328064Y7839789D01*
G01X8329579Y7840092D01*
G01X8329579Y7885850D01*
G01X8329882Y7932517D01*
G01X8330488Y7935244D01*
G01X8331397Y7937971D01*
G01X8332609Y7940395D01*
G01X8333822Y7942517D01*
G01X8335337Y7944638D01*
G01X8337761Y7947062D01*
G01X8340791Y7948880D01*
G01X8344428Y7950395D01*
G01X8347458Y7951305D01*
G01X8352912Y7951608D01*
G01X8358367Y7951305D01*
G01X8361094Y7950698D01*
G01X8364428Y7949789D01*
G01X8367458Y7948274D01*
G01X8369882Y7946759D01*
G01X8371700Y7945244D01*
G01X8373215Y7943426D01*
G01X8374427Y7941911D01*
G01X8375337Y7940092D01*
G01X8376246Y7937668D01*
G01X8377155Y7934941D01*
G01X8377761Y7932517D01*
G01X8378064Y7887062D01*
G01X8378367Y7841001D01*
G01X8378670Y7839486D01*
G01X8398973Y7839486D01*
G01X8420791Y7839789D01*
G01X8422306Y7840092D01*
G01X8422306Y7885244D01*
G01X8422003Y7932517D01*
G01X8421397Y7936153D01*
G01X8420791Y7938577D01*
G01X8420185Y7942820D01*
G01X8418367Y7948274D01*
G01X8417458Y7950698D01*
G01X8416246Y7953729D01*
G01X8414731Y7956759D01*
G01X8412912Y7959789D01*
G01X8409882Y7964032D01*
G01X8408064Y7966153D01*
G01X8400791Y7973426D01*
G01X8399276Y7974638D01*
G01X8397458Y7975850D01*
G01X8394730Y7977365D01*
G01X8392306Y7978880D01*
G01X8388064Y7980698D01*
G01X8385640Y7981607D01*
G01X8382306Y7982517D01*
G01X8379579Y7983426D01*
G01X8372306Y7984638D01*
G01X8372306Y7984638D01*
G01X8366852Y7985244D01*
G01X8358670Y7985547D01*
G01X8351094Y7985244D01*
G01X8347458Y7984941D01*
G01X8343215Y7984638D01*
G01X8338367Y7984032D01*
G01X8334428Y7983729D01*
G01X8329276Y7983123D01*
G01X8326246Y7982214D01*
G01X8324125Y7981911D01*
G01X8321700Y7981304D01*
G01X8319276Y7980395D01*
G01X8315034Y7978577D01*
G01X8312609Y7977365D01*
G01X8309882Y7975547D01*
G01X8307761Y7974032D01*
G01X8305943Y7972820D01*
G01X8304124Y7971304D01*
G01X8298064Y7965244D01*
G01X8296852Y7963729D01*
G01X8295337Y7961608D01*
G01X8293821Y7959183D01*
G01X8291397Y7954941D01*
G01X8290185Y7952214D01*
G01X8288973Y7949183D01*
G01X8287155Y7941911D01*
G01X8286246Y7937971D01*
G01X8285639Y7934335D01*
G01X8285033Y7927668D01*
G01X8284730Y7884638D01*
G01X8196246Y7884638D01*
G01X8196246Y7895244D01*
G01X8222609Y7895244D01*
G01X8250488Y7895547D01*
G01X8252003Y7895850D01*
G01X8252003Y7908577D01*
G01X8251700Y7922820D01*
G01X8251397Y7924335D01*
G01X8196246Y7924335D01*
G01X8196246Y7952820D01*
G01X8195640Y7982214D01*
G01X8195640Y7982214D01*
G01X8189882Y7982895D01*
G01X8173821Y7983123D01*
G01X8152306Y7982820D01*
G01X8152003Y7911001D01*
G01X8128353Y7911001D01*
G01X8128064Y7923426D01*
G01X8127458Y7926456D01*
G01X8127155Y7928577D01*
G01X8126852Y7931911D01*
G01X8126246Y7935547D01*
G01X8125337Y7939183D01*
G01X8124427Y7942214D01*
G01X8123821Y7944335D01*
G01X8122003Y7948577D01*
G01X8120791Y7951305D01*
G01X8118973Y7954335D01*
G01X8117458Y7956759D01*
G01X8116549Y7958577D01*
G01X8115337Y7960092D01*
G01X8112306Y7963729D01*
G01X8106246Y7969789D01*
G01X8104731Y7971001D01*
G01X8100185Y7974032D01*
G01X8097155Y7975850D01*
G01X8094730Y7977062D01*
G01X8089276Y7978880D01*
G01X8085942Y7979789D01*
G01X8081700Y7980698D01*
G01X8077155Y7981607D01*
G01X8072306Y7982214D01*
G01X8072306Y7982214D01*
G01X8069276Y7982820D01*
G01X8032912Y7983123D01*
G01X7996852Y7982517D01*
G01X7996246Y7912213D01*
G01X7981700Y7912213D01*
G01X7981700Y8044941D01*
G01X8437458Y8044941D01*
G37*
G36*
G01X8041094Y7910092D02*
G01X8041397Y7948880D01*
G01X8043670Y7949562D01*
G01X8049882Y7949789D01*
G01X8060791Y7949486D01*
G01X8065639Y7948880D01*
G01X8069276Y7947971D01*
G01X8071700Y7946759D01*
G01X8074124Y7945244D01*
G01X8076245Y7943426D01*
G01X8078064Y7941002D01*
G01X8079882Y7937971D01*
G01X8081094Y7935244D01*
G01X8082003Y7932214D01*
G01X8082609Y7929486D01*
G01X8083215Y7923426D01*
G01X8083518Y7919789D01*
G01X8083821Y7914335D01*
G01X8083821Y7910698D01*
G01X8083215Y7902819D01*
G01X8082912Y7900698D01*
G01X8082609Y7896759D01*
G01X8082003Y7893123D01*
G01X8081397Y7891001D01*
G01X8080488Y7887971D01*
G01X8079276Y7885244D01*
G01X8078367Y7883123D01*
G01X8077155Y7881304D01*
G01X8074124Y7878274D01*
G01X8072609Y7877062D01*
G01X8070488Y7875850D01*
G01X8067458Y7874638D01*
G01X8065033Y7873729D01*
G01X8058973Y7872517D01*
G01X8049579Y7872213D01*
G01X8041094Y7872213D01*
G01X8041094Y7910092D01*
G37*
G36*
G01X9866563Y8050041D02*
G01X9866563Y7768223D01*
G01X9133229Y7768223D01*
G01X9133229Y7917313D01*
G01X9147774Y7917313D01*
G01X9148077Y7846102D01*
G01X9148380Y7844586D01*
G01X9189895Y7844586D01*
G01X9234138Y7844889D01*
G01X9237774Y7845495D01*
G01X9242623Y7846102D01*
G01X9246865Y7846708D01*
G01X9249593Y7847314D01*
G01X9252623Y7848223D01*
G01X9255653Y7849435D01*
G01X9258986Y7850950D01*
G01X9261108Y7852465D01*
G01X9262926Y7853374D01*
G01X9264744Y7854586D01*
G01X9268380Y7858223D01*
G01X9270199Y7860647D01*
G01X9273229Y7865495D01*
G01X9274138Y7867617D01*
G01X9275956Y7872465D01*
G01X9276562Y7874586D01*
G01X9277168Y7879435D01*
G01X9277471Y7882768D01*
G01X9277168Y7887920D01*
G01X9276562Y7892768D01*
G01X9275956Y7895798D01*
G01X9275350Y7897920D01*
G01X9274441Y7900344D01*
G01X9273532Y7902465D01*
G01X9272320Y7904889D01*
G01X9270805Y7907010D01*
G01X9269896Y7908526D01*
G01X9268683Y7910041D01*
G01X9263532Y7915192D01*
G01X9261411Y7917010D01*
G01X9260502Y7917616D01*
G01X9302926Y7917616D01*
G01X9303229Y7846102D01*
G01X9303532Y7844586D01*
G01X9361108Y7844586D01*
G01X9420199Y7844889D01*
G01X9421714Y7845192D01*
G01X9421714Y7858829D01*
G01X9421411Y7873980D01*
G01X9421108Y7875495D01*
G01X9347774Y7875495D01*
G01X9347774Y7897920D01*
G01X9381411Y7897920D01*
G01X9415956Y7898526D01*
G01X9416638Y7902010D01*
G01X9416865Y7911253D01*
G01X9416562Y7925495D01*
G01X9416259Y7927617D01*
G01X9347774Y7927617D01*
G01X9347774Y7941556D01*
G01X9347823Y7944889D01*
G01X9440199Y7944889D01*
G01X9440199Y7941859D01*
G01X9440502Y7940344D01*
G01X9443229Y7940344D01*
G01X9446865Y7940041D01*
G01X9456562Y7939435D01*
G01X9462623Y7938829D01*
G01X9475350Y7938223D01*
G01X9477774Y7937920D01*
G01X9480805Y7938223D01*
G01X9482017Y7939056D01*
G01X9482623Y7940950D01*
G01X9483532Y7944586D01*
G01X9484441Y7947314D01*
G01X9485350Y7949435D01*
G01X9487774Y7953677D01*
G01X9488987Y7955192D01*
G01X9491108Y7957314D01*
G01X9493835Y7959132D01*
G01X9496259Y7960344D01*
G01X9498987Y7961253D01*
G01X9501411Y7961859D01*
G01X9505653Y7962162D01*
G01X9509896Y7961859D01*
G01X9512320Y7961556D01*
G01X9515350Y7960950D01*
G01X9518077Y7959738D01*
G01X9520502Y7958526D01*
G01X9522320Y7957011D01*
G01X9523835Y7955496D01*
G01X9525350Y7953071D01*
G01X9526259Y7949738D01*
G01X9526259Y7946102D01*
G01X9525350Y7942465D01*
G01X9523835Y7939738D01*
G01X9521411Y7937314D01*
G01X9518683Y7935495D01*
G01X9516259Y7934283D01*
G01X9513835Y7933374D01*
G01X9507471Y7931253D01*
G01X9504441Y7930344D01*
G01X9502017Y7929738D01*
G01X9498987Y7929132D01*
G01X9491714Y7927313D01*
G01X9488380Y7926404D01*
G01X9485653Y7925495D01*
G01X9483229Y7924889D01*
G01X9480502Y7923980D01*
G01X9474441Y7921556D01*
G01X9471714Y7920344D01*
G01X9466865Y7917920D01*
G01X9464744Y7916707D01*
G01X9462926Y7915798D01*
G01X9461108Y7914586D01*
G01X9456865Y7910950D01*
G01X9453835Y7907920D01*
G01X9452320Y7906101D01*
G01X9450805Y7903980D01*
G01X9449593Y7901859D01*
G01X9447168Y7897010D01*
G01X9446259Y7893980D01*
G01X9445653Y7890950D01*
G01X9445047Y7886101D01*
G01X9445047Y7884283D01*
G01X9445350Y7882162D01*
G01X9445653Y7879435D01*
G01X9446259Y7876404D01*
G01X9446865Y7873980D01*
G01X9447775Y7871556D01*
G01X9448987Y7868526D01*
G01X9450199Y7866101D01*
G01X9451411Y7863980D01*
G01X9453835Y7860344D01*
G01X9455350Y7858526D01*
G01X9458987Y7854889D01*
G01X9462017Y7852768D01*
G01X9464744Y7850950D01*
G01X9467471Y7849435D01*
G01X9469896Y7848223D01*
G01X9472623Y7847011D01*
G01X9475350Y7846102D01*
G01X9479593Y7844889D01*
G01X9481714Y7844586D01*
G01X9484138Y7843980D01*
G01X9488077Y7843374D01*
G01X9491714Y7843071D01*
G01X9502017Y7842465D01*
G01X9505653Y7842162D01*
G01X9509290Y7842465D01*
G01X9518986Y7843071D01*
G01X9522320Y7843374D01*
G01X9525956Y7843980D01*
G01X9529593Y7844889D01*
G01X9533532Y7845799D01*
G01X9536865Y7847011D01*
G01X9539896Y7848223D01*
G01X9544744Y7850647D01*
G01X9549593Y7853677D01*
G01X9551411Y7855192D01*
G01X9554441Y7858223D01*
G01X9555653Y7859738D01*
G01X9558684Y7863980D01*
G01X9559896Y7866405D01*
G01X9561108Y7869132D01*
G01X9562926Y7873980D01*
G01X9563532Y7876101D01*
G01X9564138Y7878526D01*
G01X9564744Y7882162D01*
G01X9564517Y7884056D01*
G01X9563835Y7884889D01*
G01X9562017Y7885495D01*
G01X9548078Y7886101D01*
G01X9536562Y7886707D01*
G01X9531714Y7887314D01*
G01X9527471Y7887617D01*
G01X9524744Y7887314D01*
G01X9523229Y7886404D01*
G01X9522017Y7883374D01*
G01X9521108Y7880647D01*
G01X9519896Y7877920D01*
G01X9518380Y7875495D01*
G01X9516865Y7873980D01*
G01X9515047Y7872465D01*
G01X9513229Y7871253D01*
G01X9511108Y7870344D01*
G01X9508683Y7869738D01*
G01X9502926Y7869435D01*
G01X9497168Y7869738D01*
G01X9495047Y7870041D01*
G01X9492320Y7870950D01*
G01X9490199Y7872465D01*
G01X9488684Y7873677D01*
G01X9487168Y7875798D01*
G01X9486259Y7878223D01*
G01X9486259Y7880647D01*
G01X9487168Y7883374D01*
G01X9488987Y7885798D01*
G01X9491714Y7887617D01*
G01X9494138Y7888829D01*
G01X9503229Y7891556D01*
G01X9506259Y7892162D01*
G01X9511108Y7893374D01*
G01X9513229Y7893677D01*
G01X9515350Y7894283D01*
G01X9518380Y7895192D01*
G01X9522017Y7896101D01*
G01X9524441Y7897010D01*
G01X9526562Y7897314D01*
G01X9528684Y7897920D01*
G01X9534744Y7899738D01*
G01X9539593Y7901556D01*
G01X9541714Y7902465D01*
G01X9544441Y7903677D01*
G01X9549896Y7906707D01*
G01X9552926Y7908829D01*
G01X9555956Y7911253D01*
G01X9558381Y7913071D01*
G01X9560502Y7915192D01*
G01X9561638Y7916707D01*
G01X9591411Y7916707D01*
G01X9592017Y7845495D01*
G01X9606865Y7844813D01*
G01X9650199Y7844586D01*
G01X9709290Y7844889D01*
G01X9710805Y7845192D01*
G01X9710805Y7858829D01*
G01X9710702Y7863980D01*
G01X9725956Y7863980D01*
G01X9726259Y7846708D01*
G01X9726562Y7844586D01*
G01X9792320Y7844586D01*
G01X9859593Y7844889D01*
G01X9861108Y7845192D01*
G01X9861108Y7861253D01*
G01X9860805Y7878829D01*
G01X9860502Y7880344D01*
G01X9815653Y7880344D01*
G01X9815653Y7932768D01*
G01X9815350Y7986708D01*
G01X9815350Y7986708D01*
G01X9815047Y7988223D01*
G01X9793835Y7988223D01*
G01X9772017Y7987920D01*
G01X9771411Y7933980D01*
G01X9771411Y7880344D01*
G01X9749896Y7880344D01*
G01X9727168Y7879738D01*
G01X9726259Y7875495D01*
G01X9725956Y7863980D01*
G01X9710702Y7863980D01*
G01X9710502Y7873980D01*
G01X9710199Y7875495D01*
G01X9673229Y7875495D01*
G01X9645578Y7875723D01*
G01X9636562Y7876404D01*
G01X9636865Y7884889D01*
G01X9636562Y7895192D01*
G01X9636259Y7897920D01*
G01X9669290Y7897920D01*
G01X9703835Y7898223D01*
G01X9705350Y7898526D01*
G01X9705350Y7911556D01*
G01X9705047Y7926101D01*
G01X9704744Y7927617D01*
G01X9670502Y7927617D01*
G01X9644896Y7927844D01*
G01X9636562Y7928526D01*
G01X9636865Y7939738D01*
G01X9636562Y7952768D01*
G01X9636562Y7954738D01*
G01X9637168Y7955192D01*
G01X9672623Y7954889D01*
G01X9709896Y7955192D01*
G01X9712623Y7955496D01*
G01X9712623Y7970950D01*
G01X9712017Y7987314D01*
G01X9712017Y7987314D01*
G01X9696714Y7987995D01*
G01X9652017Y7988223D01*
G01X9592017Y7987617D01*
G01X9591411Y7916707D01*
G01X9561638Y7916707D01*
G01X9562320Y7917616D01*
G01X9563532Y7919132D01*
G01X9564744Y7921253D01*
G01X9565956Y7923677D01*
G01X9566865Y7925798D01*
G01X9567775Y7928223D01*
G01X9568684Y7930950D01*
G01X9569290Y7933980D01*
G01X9569896Y7936404D01*
G01X9570199Y7939738D01*
G01X9569896Y7943071D01*
G01X9568684Y7950344D01*
G01X9568078Y7953071D01*
G01X9567168Y7956102D01*
G01X9565956Y7959132D01*
G01X9564441Y7962162D01*
G01X9562926Y7964889D01*
G01X9561714Y7967011D01*
G01X9560805Y7968526D01*
G01X9559593Y7970041D01*
G01X9557775Y7972162D01*
G01X9555350Y7974889D01*
G01X9553229Y7976708D01*
G01X9551714Y7977920D01*
G01X9549593Y7979435D01*
G01X9547169Y7980950D01*
G01X9545047Y7982162D01*
G01X9542623Y7983374D01*
G01X9540502Y7984586D01*
G01X9538078Y7985495D01*
G01X9535350Y7986405D01*
G01X9532320Y7987314D01*
G01X9528380Y7988223D01*
G01X9523835Y7989132D01*
G01X9520199Y7989738D01*
G01X9520199Y7989738D01*
G01X9512926Y7990344D01*
G01X9504744Y7990647D01*
G01X9497168Y7990344D01*
G01X9494744Y7990041D01*
G01X9490502Y7989738D01*
G01X9487471Y7989132D01*
G01X9484441Y7988829D01*
G01X9481411Y7988223D01*
G01X9478381Y7987314D01*
G01X9475350Y7986708D01*
G01X9472320Y7985798D01*
G01X9469290Y7984586D01*
G01X9467168Y7983677D01*
G01X9464441Y7982465D01*
G01X9462320Y7980950D01*
G01X9460199Y7979738D01*
G01X9458078Y7978223D01*
G01X9452017Y7972162D01*
G01X9450199Y7969738D01*
G01X9448078Y7966708D01*
G01X9446562Y7964283D01*
G01X9445350Y7961859D01*
G01X9444138Y7959132D01*
G01X9442926Y7956102D01*
G01X9441714Y7952465D01*
G01X9440805Y7948526D01*
G01X9440199Y7944889D01*
G01X9347823Y7944889D01*
G01X9347926Y7951935D01*
G01X9348381Y7955192D01*
G01X9384138Y7954889D01*
G01X9421411Y7955192D01*
G01X9423532Y7955496D01*
G01X9423532Y7970344D01*
G01X9423229Y7986708D01*
G01X9423229Y7986708D01*
G01X9422926Y7988223D01*
G01X9363532Y7988223D01*
G01X9303532Y7987920D01*
G01X9302926Y7917616D01*
G01X9260502Y7917616D01*
G01X9258683Y7918829D01*
G01X9255956Y7920344D01*
G01X9253229Y7921556D01*
G01X9250199Y7922768D01*
G01X9247471Y7923677D01*
G01X9245350Y7923980D01*
G01X9244593Y7924208D01*
G01X9244744Y7924889D01*
G01X9246865Y7926404D01*
G01X9249896Y7927617D01*
G01X9252320Y7928829D01*
G01X9254138Y7930041D01*
G01X9261108Y7937011D01*
G01X9264744Y7941859D01*
G01X9266259Y7944283D01*
G01X9268077Y7947314D01*
G01X9269593Y7949738D01*
G01X9276865Y7964283D01*
G01X9278077Y7966405D01*
G01X9279289Y7968829D01*
G01X9280502Y7970950D01*
G01X9288077Y7986102D01*
G01X9288077Y7987617D01*
G01X9265047Y7988223D01*
G01X9240805Y7987920D01*
G01X9238683Y7987011D01*
G01X9237471Y7985495D01*
G01X9236259Y7983071D01*
G01X9233229Y7977617D01*
G01X9232017Y7975192D01*
G01X9229593Y7970950D01*
G01X9228380Y7968526D01*
G01X9225350Y7963071D01*
G01X9224138Y7960647D01*
G01X9221714Y7956405D01*
G01X9218986Y7950950D01*
G01X9217471Y7948223D01*
G01X9212623Y7939738D01*
G01X9211108Y7937314D01*
G01X9209592Y7935192D01*
G01X9208077Y7933677D01*
G01X9205956Y7932162D01*
G01X9202926Y7930950D01*
G01X9200198Y7930344D01*
G01X9197471Y7930041D01*
G01X9194138Y7930344D01*
G01X9193077Y7930723D01*
G01X9192926Y7931253D01*
G01X9193229Y7959132D01*
G01X9193002Y7979814D01*
G01X9192320Y7987314D01*
G01X9192320Y7987314D01*
G01X9186335Y7987995D01*
G01X9170198Y7988223D01*
G01X9148380Y7987617D01*
G01X9147774Y7917313D01*
G01X9133229Y7917313D01*
G01X9133229Y8050041D01*
G01X9866563Y8050041D01*
G37*
G36*
G01X9193229Y7887011D02*
G01X9192926Y7900041D01*
G01X9192926Y7901556D01*
G01X9193532Y7902465D01*
G01X9201714Y7902768D01*
G01X9212320Y7902465D01*
G01X9217168Y7901859D01*
G01X9220199Y7901253D01*
G01X9222926Y7900647D01*
G01X9225653Y7899738D01*
G01X9227471Y7898829D01*
G01X9229593Y7897010D01*
G01X9231411Y7894283D01*
G01X9232320Y7892162D01*
G01X9232623Y7889132D01*
G01X9232320Y7884889D01*
G01X9231411Y7881556D01*
G01X9230199Y7879738D01*
G01X9228987Y7878223D01*
G01X9226865Y7876404D01*
G01X9224441Y7875192D01*
G01X9221411Y7874586D01*
G01X9217471Y7873980D01*
G01X9204138Y7873677D01*
G01X9195577Y7873829D01*
G01X9192926Y7874283D01*
G01X9193229Y7887011D01*
G37*
G54D10*
G01X10887595Y1454338D02*
G01X10887595Y1539936D01*
G01X10930521Y1497264D02*
G01X10844923Y1497264D01*
G54D11*
G01X12269275Y615764D02*
G01X12304657Y651147D01*
G01X12340040Y615764D02*
G01X12339860Y639293D01*
G01X12304657Y580382D02*
G01X12340040Y615764D01*
G01X12328006Y651147D02*
G01X12339860Y639293D01*
G01X12304657Y651147D02*
G01X12328006Y651147D01*
G01X12292804Y686349D02*
G01X12304478Y674675D01*
G01X12269275Y686529D02*
G01X12292804Y686349D01*
G01X12233893Y651147D02*
G01X12269275Y686529D01*
G01X12233893Y651147D02*
G01X12269275Y615764D01*
G01X12269275Y615764D02*
G01X12304657Y580382D01*
G01X12304657Y651147D02*
G01X12304657Y651147D01*
G01X12304657Y651147D02*
G01X12304478Y674675D01*
G01X10922237Y650608D02*
G01X10945765Y650428D01*
G01X10898709Y627079D02*
G01X10922237Y650608D01*
G01X10898709Y603372D02*
G01X10898709Y627079D01*
G01X10898709Y603372D02*
G01X10945765Y556315D01*
G01X10945765Y556315D02*
G01X10969473Y556315D01*
G01X10969473Y556315D02*
G01X10993001Y579843D01*
G01X10993001Y579843D02*
G01X10992822Y603372D01*
G01X11016350Y626900D02*
G01X11040058Y626900D01*
G01X10969293Y673956D02*
G01X11016350Y626900D01*
G01X10969293Y673956D02*
G01X10969293Y697664D01*
G01X10969293Y697664D02*
G01X10992822Y721193D01*
G01X10992822Y721193D02*
G01X11016530Y721193D01*
G01X11016530Y721193D02*
G01X11063586Y674136D01*
G01X11063586Y650428D02*
G01X11063586Y674136D01*
G01X11040058Y626900D02*
G01X11063586Y650428D01*
G01X11075440Y803811D02*
G01X11146204Y733046D01*
G01X11098789Y733046D02*
G01X11146204Y733046D01*
G01X11098968Y685810D02*
G01X11098789Y733046D01*
G01X11028204Y756575D02*
G01X11098968Y685810D01*
G01X11098968Y827339D02*
G01X11110822Y815485D01*
G01X11098968Y827339D02*
G01X11110822Y839193D01*
G01X11110822Y839193D02*
G01X11122676Y827339D01*
G01X11110822Y815485D02*
G01X11122676Y827339D01*
G01X11193261Y850867D02*
G01X11240497Y898104D01*
G01X11252351Y839193D02*
G01X11252171Y886429D01*
G01X11204935Y839193D02*
G01X11252351Y839193D01*
G01X11157879Y886250D02*
G01X11193261Y850867D01*
G01X11193261Y850867D02*
G01X11204935Y839193D01*
G01X11205115Y933486D02*
G01X11240497Y898104D01*
G01X11240497Y898104D02*
G01X11252171Y886429D01*
G01X11741159Y1084611D02*
G01X11741159Y1108319D01*
G01X11741159Y1108319D02*
G01X11764687Y1131847D01*
G01X11764687Y1131847D02*
G01X11788216Y1131667D01*
G01X11788216Y1131667D02*
G01X11799890Y1119993D01*
G01X11800069Y1096465D02*
G01X11799890Y1119993D01*
G01X11776541Y1072937D02*
G01X11800069Y1096465D01*
G01X11776362Y1049408D02*
G01X11776541Y1072937D01*
G01X11776362Y1049408D02*
G01X11788216Y1037554D01*
G01X11788216Y1037554D02*
G01X11811923Y1037554D01*
G01X11811923Y1037554D02*
G01X11835452Y1061083D01*
G01X11835452Y1061083D02*
G01X11835272Y1084611D01*
G01X11811744Y1178904D02*
G01X11882508Y1108139D01*
G01X11858800Y1108139D02*
G01X11882508Y1108139D01*
G01X11799890Y1167050D02*
G01X11811744Y1178904D01*
G01X11811744Y1178904D02*
G01X11823418Y1190578D01*
G01X12224374Y1917901D02*
G01X12271431Y1964958D01*
G01X12283284Y1906048D02*
G01X12283105Y1953284D01*
G01X12236048Y1906227D02*
G01X12283284Y1906048D01*
G01X12188992Y1953284D02*
G01X12224374Y1917901D01*
G01X12224374Y1917901D02*
G01X12236048Y1906227D01*
G01X12236048Y2000340D02*
G01X12271431Y1964958D01*
G01X12271431Y1964958D02*
G01X12283105Y1953284D01*
G54D12*
G01X10053380Y8465535D02*
G01X10049570Y8454105D01*
G01X9977180Y8454105D02*
G01X9984800Y8446485D01*
G01X9973370Y8465535D02*
G01X9977180Y8454105D01*
G01X9973370Y8480775D02*
G01X9973370Y8465535D01*
G01X9977180Y8492205D02*
G01X9973370Y8480775D01*
G01X9984800Y8499825D02*
G01X9977180Y8492205D01*
G01X9992420Y8499825D02*
G01X9984800Y8499825D01*
G01X9992420Y8499825D02*
G01X10000040Y8496015D01*
G01X10000040Y8496015D02*
G01X10003850Y8492205D01*
G01X10003850Y8492205D02*
G01X10007660Y8484585D01*
G01X10007660Y8484585D02*
G01X10015280Y8461725D01*
G01X10015280Y8461725D02*
G01X10019090Y8454105D01*
G01X10019090Y8454105D02*
G01X10022900Y8450295D01*
G01X10022900Y8450295D02*
G01X10030520Y8446485D01*
G01X10041950Y8446485D02*
G01X10030520Y8446485D01*
G01X10049570Y8454105D02*
G01X10041950Y8446485D01*
G01X10053380Y8480775D02*
G01X10053380Y8465535D01*
G01X10049570Y8492205D02*
G01X10053380Y8480775D01*
G01X10041950Y8499825D02*
G01X10049570Y8492205D01*
G01X10053380Y8371555D02*
G01X9973370Y8352505D01*
G01X9973370Y8390605D02*
G01X10053380Y8371555D01*
G01X10053380Y8409655D02*
G01X9973370Y8390605D01*
G01X9973370Y8428705D02*
G01X10053380Y8409655D01*
G01X10053380Y8336503D02*
G01X10053380Y8283163D01*
G01X10053380Y8336503D02*
G01X10015280Y8298403D01*
G01X10015280Y8298403D02*
G01X10003850Y8290783D01*
G01X10003850Y8290783D02*
G01X9996230Y8286973D01*
G01X9996230Y8286973D02*
G01X9988610Y8286973D01*
G01X9980990Y8290783D02*
G01X9988610Y8286973D01*
G01X9977180Y8294593D02*
G01X9980990Y8290783D01*
G01X9973370Y8302213D02*
G01X9977180Y8294593D01*
G01X9973370Y8317453D02*
G01X9973370Y8302213D01*
G01X9977180Y8325073D02*
G01X9973370Y8317453D01*
G01X9980990Y8328883D02*
G01X9977180Y8325073D01*
G01X9988610Y8332693D02*
G01X9980990Y8328883D01*
G01X9992420Y8332693D02*
G01X9988610Y8332693D01*
G04 Text End*

G04 PolygonModel Start*
G54D13*
G01X599148Y-499484D02*
G01X6846728Y-499484D01*
G01X599148Y8950516D02*
G01X6846728Y8950516D01*
G01X599148Y-499484D02*
G01X599148Y8950516D01*
G01X6846728Y8950516D02*
G01X6846728Y-499484D01*
G54D14*
G01X11965560Y1490365D02*
G03X11412668Y937376I-189660J-363265D01*
G01X11586726Y763421D02*
G03X12141239Y1313049I189174J363679D01*
G54D13*
G01X11942061Y4546321D02*
G01X11942061Y4446082D01*
G01X11942061Y4446082D02*
G01X10951461Y4446082D01*
G01X11942061Y4826320D02*
G01X11942061Y4711848D01*
G01X11942061Y5196320D02*
G01X11942061Y4991847D01*
G01X10951461Y5361844D02*
G01X10951461Y5462082D01*
G01X10951461Y5462082D02*
G01X11942061Y5462082D01*
G01X11942061Y5462082D02*
G01X11942061Y5361846D01*
G01X10951461Y4991844D02*
G01X10951461Y5196325D01*
G01X10951461Y4711842D02*
G01X10951461Y4826323D01*
G01X10951461Y4458782D02*
G01X10951461Y4546323D01*
G01X9809895Y8678138D02*
G01X9809895Y8058138D01*
G01X9809895Y8678138D02*
G01X9189895Y8678138D01*
G01X9809895Y8058138D02*
G01X9189895Y8058138D01*
G01X9189895Y8678138D02*
G01X9189895Y8058138D01*
G01X8514479Y8678138D02*
G01X8514479Y8058138D01*
G01X8514479Y8678138D02*
G01X7894478Y8678138D01*
G01X8514479Y8058138D02*
G01X7894478Y8058138D01*
G01X7894478Y8678138D02*
G01X7894478Y8058138D01*

G04 Circle Start*
G54D14*
G01X12572747Y2966663D02*
G03X13222743Y2966663I324998J0D01*
G03X12572747Y2966663I-324998J0D01*
G01X10575900Y1127100D02*
G03X12975900Y1127100I1200000J0D01*
G03X10575900Y1127100I-1200000J0D01*
G54D13*
G01X11224958Y4954092D02*
G03X11668544Y4954092I221793J0D01*
G03X11224958Y4954092I-221793J0D01*
G01X9341071Y8368138D02*
G03X9658719Y8368138I158824J0D01*
G03X9341071Y8368138I-158824J0D01*
G01X9714895Y8143138D02*
G03X9764895Y8143138I25000J0D01*
G03X9714895Y8143138I-25000J0D01*
G01X9239895Y8143138D02*
G03X9289895Y8143138I25000J0D01*
G03X9239895Y8143138I-25000J0D01*
G01X9239895Y8593138D02*
G03X9289896Y8593138I25000J0D01*
G03X9239895Y8593138I-25000J0D01*
G01X9714895Y8593138D02*
G03X9764895Y8593138I25000J0D01*
G03X9714895Y8593138I-25000J0D01*
G01X8045655Y8368138D02*
G03X8363303Y8368138I158824J0D01*
G03X8045655Y8368138I-158824J0D01*
G01X8419478Y8143138D02*
G03X8469478Y8143138I25000J0D01*
G03X8419478Y8143138I-25000J0D01*
G01X7944479Y8143138D02*
G03X7994479Y8143138I25000J0D01*
G03X7944479Y8143138I-25000J0D01*
G01X7944478Y8593138D02*
G03X7994479Y8593138I25000J0D01*
G03X7944478Y8593138I-25000J0D01*
G01X8419478Y8593138D02*
G03X8469478Y8593138I25000J0D01*
G03X8419478Y8593138I-25000J0D01*
G04 Circle End*

M02*

