G04 Layer: BottomSolderMaskLayer*
G04 EasyEDA Pro v3.2.91, 2026-07-29 11:30:49*
G04 Gerber Generator version 0.3*
G04 Scale: 100 percent, Rotated: No, Reflected: No*
G04 Dimensions in millimeters*
G04 Leading zeros omitted, absolute positions, 4 integers and 5 decimals*
G04 Panelize: V-CUT, Column: 1, Row: 1, Board Size: 260mm x 295.006mm, Panelized Board Size: 260mm x 295.006mm, Panelized Method: Only Board Outline*
G04 Generated by one-click*
%FSLAX45Y45*%
%MOMM*%
%AMRoundRect*1,1,$1,$2,$3*1,1,$1,$4,$5*1,1,$1,0-$2,0-$3*1,1,$1,0-$4,0-$5*20,1,$1,$2,$3,$4,$5,0*20,1,$1,$4,$5,0-$2,0-$3,0*20,1,$1,0-$2,0-$3,0-$4,0-$5,0*20,1,$1,0-$4,0-$5,$2,$3,0*4,1,4,$2,$3,$4,$5,0-$2,0-$3,0-$4,0-$5,$2,$3,0*%
%ADD10C,2.0*%
%ADD11C,4.702*%
%ADD12C,2.402*%
%ADD13RoundRect,0.102X-0.8X0.65X0.8X0.65*%
%ADD14RoundRect,0.102X-0.75X-0.4X-0.75X0.4*%
%ADD15C,0.6*%
%ADD16C,5.6*%
%ADD17C,0.635*%
%ADD18C,0.585*%
%ADD19O,1.9034X1.302*%
%ADD20O,1.902X1.302*%
%ADD21O,2.102X1.302*%
%ADD22C,1.602*%
%ADD23C,1.402*%
%ADD24RoundRect,0.102X-0.65X0.65X0.65X0.65*%
%ADD25C,1.6768*%
%ADD26C,1.8032*%
%ADD27C,1.9032*%
G75*


G04 Panelize Start*
G54D10*
G01X450233Y9250942D03*
G01X12449746Y9250942D03*
G01X950233Y-849242D03*
G01X11949746Y-849242D03*
G04 Panelize End*

G04 Pad Start*
G54D11*
G01X-150000Y7851000D03*
G01X-150000Y6050700D03*
G01X2500000Y7851000D03*
G01X2500000Y6050700D03*
G54D12*
G01X12412297Y1763497D03*
G01X12430682Y472321D03*
G01X11664884Y1238116D03*
G01X11139506Y490706D03*
G54D13*
G01X10856760Y4629074D03*
G01X10856760Y4909084D03*
G01X10856760Y5279085D03*
G01X12036768Y4629074D03*
G01X12036768Y4909084D03*
G01X12036768Y5279085D03*
G54D14*
G01X9934896Y8593138D03*
G01X9934895Y8143138D03*
G01X9064895Y8143138D03*
G01X9064896Y8593138D03*
G01X8639479Y8593138D03*
G01X8639479Y8143138D03*
G01X7769478Y8143138D03*
G01X7769479Y8593138D03*
G54D15*
G01X-220000Y8401000D03*
G01X-155000Y8556000D03*
G01X-155000Y8246000D03*
G01X0Y8621000D03*
G54D16*
G01X0Y8401000D03*
G54D15*
G01X0Y8181000D03*
G01X155000Y8556000D03*
G01X155000Y8246000D03*
G01X220000Y8401000D03*
G01X-220000Y0D03*
G01X-155000Y155000D03*
G01X-155000Y-155000D03*
G01X0Y220000D03*
G54D16*
G01X0Y0D03*
G54D15*
G01X0Y-220000D03*
G01X155000Y155000D03*
G01X155000Y-155000D03*
G01X220000Y0D03*
G01X12680000Y0D03*
G01X12745000Y155000D03*
G01X12745000Y-155000D03*
G01X12900000Y220000D03*
G54D16*
G01X12900000Y0D03*
G54D15*
G01X12900000Y-220000D03*
G01X13055000Y155000D03*
G01X13055000Y-155000D03*
G01X13120000Y0D03*
G01X12680000Y8401000D03*
G01X12745000Y8556000D03*
G01X12745000Y8246000D03*
G01X12900000Y8621000D03*
G54D16*
G01X12900000Y8401000D03*
G54D15*
G01X12900000Y8181000D03*
G01X13055000Y8556000D03*
G01X13055000Y8246000D03*
G01X13120000Y8401000D03*
G01X2822028Y3284815D03*
G01X2712028Y3284815D03*
G01X2602028Y3284815D03*
G01X2822028Y3174815D03*
G01X2712028Y3174815D03*
G01X2602028Y3174815D03*
G01X2822028Y3064815D03*
G01X2712028Y3064815D03*
G01X2602028Y3064815D03*
G54D17*
G01X4164838Y4611464D03*
G01X4314838Y4611464D03*
G01X4464838Y4611464D03*
G01X4164838Y4761464D03*
G01X4314838Y4761464D03*
G01X4464838Y4761464D03*
G01X4164838Y4911464D03*
G01X4314838Y4911464D03*
G01X4464838Y4911464D03*
G01X3574528Y7539994D03*
G01X3739528Y7539994D03*
G01X3904528Y7539994D03*
G01X3574528Y7704994D03*
G01X3739528Y7704994D03*
G01X3904528Y7704994D03*
G01X3574528Y7869994D03*
G01X3739528Y7869994D03*
G01X3904528Y7869994D03*
G54D15*
G01X6130908Y2592574D03*
G01X6262908Y2592574D03*
G01X6196908Y2658574D03*
G01X6130908Y2724574D03*
G01X6262908Y2724574D03*
G54D18*
G01X12748018Y5574727D03*
G01X12748018Y5724727D03*
G01X12698018Y5649727D03*
G01X12648018Y5574727D03*
G01X12648018Y5724727D03*
G54D20*
G01X13337213Y7432491D03*
G54D21*
G01X12919231Y7432491D03*
G01X12919231Y6567469D03*
G54D20*
G01X13337213Y6567469D03*
G54D22*
G01X12515537Y4175901D03*
G01X13226737Y4175901D03*
G54D23*
G01X9575572Y-345744D03*
G01X9575572Y-91744D03*
G01X9321572Y-345744D03*
G54D24*
G01X8813572Y-345744D03*
G54D23*
G01X9321572Y-91744D03*
G01X9067572Y-91744D03*
G01X8813572Y-91744D03*
G01X9067572Y-345744D03*
G01X9829572Y-91744D03*
G01X9829572Y-345744D03*
G54D25*
G01X12962047Y3067663D03*
G01X12962047Y2867663D03*
G54D26*
G01X11898246Y8545516D03*
G01X11390246Y8545516D03*
G54D27*
G01X11644246Y8545516D03*
G04 Pad End*

M02*

